<?xml version="1.0" encoding="utf-8"?>
<!-- Generator: Adobe Illustrator 27.2.0, SVG Export Plug-In . SVG Version: 6.00 Build 0)  -->
<svg version="1.1" id="Layer_1" xmlns="http://www.w3.org/2000/svg" xmlns:xlink="http://www.w3.org/1999/xlink" x="0px" y="0px"
	 viewBox="0 0 800 600" style="enable-background:new 0 0 800 600;" xml:space="preserve">
<style type="text/css">
	.st0{fill:#F5F5F5;}
	.st1{fill:none;stroke:#EBEBEB;stroke-miterlimit:10;}
	.st2{fill:none;stroke:#C2C2C2;stroke-width:0.9;}
	.st3{clip-path:url(#SVGID_00000103227143335513689630000010710650470066009759_);}
	.st4{fill:none;stroke:#EBEBEB;stroke-width:2.19;}
	.st5{fill:#EBEBEB;}
	.st6{fill:#FFFFFF;}
	.st7{clip-path:url(#SVGID_00000100342712506238281630000013447776014058573715_);}
	.st8{fill:none;stroke:#C2C2C2;}
	.st9{fill:#FFE672;stroke:#F5C254;stroke-width:3;stroke-miterlimit:10;}
	.st10{fill:#999999;}
	.st11{fill:#808080;}
	.st12{fill:#00D2C0;}
	.st13{fill:#A3106D;}
</style>
<g>
	<path class="st0" d="M30,20h740c5.5,0,10,5.4,10,12.1v534.4c0,6.7-4.5,12.1-10,12.1H30c-5.5,0-10-5.4-10-12.1V32.1
		C20,25.4,24.5,20,30,20z"/>
	<rect x="723.6" y="35.9" class="st1" width="39.1" height="39.1"/>
	<path class="st2" d="M131.1,598.8c-10.8-0.3-19.3-9.4-19-20.2c0.3-10.3,8.6-18.7,19-19V598.8z"/>
	<g>
		<defs>
			<rect id="SVGID_1_" x="674.2" y="514" width="105.8" height="36.5"/>
		</defs>
		<clipPath id="SVGID_00000103956918192894710220000015568033508123237275_">
			<use xlink:href="#SVGID_1_"  style="overflow:visible;"/>
		</clipPath>
		<g style="clip-path:url(#SVGID_00000103956918192894710220000015568033508123237275_);">
			<g id="mask0_1501_9274">
				<line class="st4" x1="626.5" y1="552.1" x2="668.3" y2="510.3"/>
				<line class="st4" x1="716.1" y1="552.1" x2="757.8" y2="510.3"/>
				<line class="st4" x1="616.6" y1="552.1" x2="658.4" y2="510.3"/>
				<line class="st4" x1="795.7" y1="552.1" x2="837.4" y2="510.3"/>
				<line class="st4" x1="706.1" y1="552.1" x2="747.9" y2="510.3"/>
				<line class="st4" x1="606.7" y1="552.1" x2="648.4" y2="510.3"/>
				<line class="st4" x1="785.7" y1="552.1" x2="827.5" y2="510.3"/>
				<line class="st4" x1="696.2" y1="552.1" x2="737.9" y2="510.3"/>
				<line class="st4" x1="596.7" y1="552.1" x2="638.5" y2="510.3"/>
				<line class="st4" x1="775.8" y1="552.1" x2="817.5" y2="510.3"/>
				<line class="st4" x1="686.2" y1="552.1" x2="728" y2="510.3"/>
				<line class="st4" x1="586.8" y1="552.1" x2="628.5" y2="510.3"/>
				<line class="st4" x1="765.8" y1="552.1" x2="807.6" y2="510.3"/>
				<line class="st4" x1="676.3" y1="552.1" x2="718" y2="510.3"/>
				<line class="st4" x1="576.8" y1="552.1" x2="618.6" y2="510.3"/>
				<line class="st4" x1="755.9" y1="552.1" x2="797.6" y2="510.3"/>
				<line class="st4" x1="666.3" y1="552.1" x2="708.1" y2="510.3"/>
				<line class="st4" x1="566.8" y1="552.1" x2="608.6" y2="510.3"/>
				<line class="st4" x1="745.9" y1="552.1" x2="787.7" y2="510.3"/>
				<line class="st4" x1="656.4" y1="552.1" x2="698.1" y2="510.3"/>
				<line class="st4" x1="556.9" y1="552.1" x2="598.7" y2="510.3"/>
				<line class="st4" x1="736" y1="552.1" x2="777.7" y2="510.3"/>
				<line class="st4" x1="646.4" y1="552.1" x2="688.2" y2="510.3"/>
				<line class="st4" x1="547" y1="552.1" x2="588.7" y2="510.3"/>
				<line class="st4" x1="726" y1="552.1" x2="767.8" y2="510.3"/>
				<line class="st4" x1="636.5" y1="552.1" x2="678.2" y2="510.3"/>
			</g>
		</g>
	</g>
	<circle class="st5" cx="27" cy="301.6" r="1.6"/>
	<circle class="st5" cx="43" cy="301.6" r="1.6"/>
	<circle class="st5" cx="10.9" cy="301.6" r="1.6"/>
	<circle class="st5" cx="59.1" cy="301.6" r="1.6"/>
	<circle class="st5" cx="75.2" cy="301.6" r="1.6"/>
	<circle class="st5" cx="27" cy="349.7" r="1.6"/>
	<circle class="st5" cx="43" cy="349.7" r="1.6"/>
	<circle class="st5" cx="10.9" cy="349.7" r="1.6"/>
	<circle class="st5" cx="59.1" cy="349.7" r="1.6"/>
	<circle class="st5" cx="75.2" cy="349.7" r="1.6"/>
	<circle class="st5" cx="27" cy="317.6" r="1.6"/>
	<circle class="st5" cx="43" cy="317.6" r="1.6"/>
	<circle class="st5" cx="10.9" cy="317.6" r="1.6"/>
	<circle class="st5" cx="59.1" cy="317.6" r="1.6"/>
	<circle class="st5" cx="75.2" cy="317.6" r="1.6"/>
	<circle class="st5" cx="27" cy="365.8" r="1.6"/>
	<circle class="st5" cx="43" cy="365.8" r="1.6"/>
	<circle class="st5" cx="10.9" cy="365.8" r="1.6"/>
	<circle class="st5" cx="59.1" cy="365.8" r="1.6"/>
	<circle class="st5" cx="75.2" cy="365.8" r="1.6"/>
	<circle class="st5" cx="27" cy="333.7" r="1.6"/>
	<circle class="st5" cx="43" cy="333.7" r="1.6"/>
	<circle class="st5" cx="10.9" cy="333.7" r="1.6"/>
	<circle class="st5" cx="59.1" cy="333.7" r="1.6"/>
	<circle class="st5" cx="75.2" cy="333.7" r="1.6"/>
	<circle class="st6" cx="737.6" cy="441.1" r="5.5"/>
	<circle class="st6" cx="760.3" cy="441.1" r="5.5"/>
	<circle class="st6" cx="737.6" cy="513" r="5.5"/>
	<circle class="st6" cx="760.3" cy="513" r="5.5"/>
	<circle class="st6" cx="737.6" cy="465" r="5.5"/>
	<circle class="st6" cx="760.3" cy="465" r="5.5"/>
	<circle class="st6" cx="737.6" cy="489" r="5.5"/>
	<circle class="st6" cx="760.3" cy="489" r="5.5"/>
	<g>
		<defs>
			<rect id="SVGID_00000023982752678897579600000010169626405700983940_" x="20" y="141.7" width="44.9" height="134.3"/>
		</defs>
		<clipPath id="SVGID_00000146470942985223991740000012652546822436035719_">
			<use xlink:href="#SVGID_00000023982752678897579600000010169626405700983940_"  style="overflow:visible;"/>
		</clipPath>
		<g style="clip-path:url(#SVGID_00000146470942985223991740000012652546822436035719_);">
			<circle class="st5" cx="-5.1" cy="208.2" r="58.9"/>
		</g>
	</g>
	<path class="st8" d="M736.6,60.5l-9.8,39.5h-3.2l9.8-39.5L736.6,60.5z"/>
</g>
<rect x="714.7" y="104.5" class="st9" width="22.1" height="12.3"/>
<rect x="714.6" y="123.4" class="st9" width="22.1" height="12.3"/>
<rect x="714.7" y="142.4" class="st9" width="22.1" height="12.3"/>
<rect x="714.6" y="161.3" class="st9" width="22.1" height="12.3"/>
<rect x="714.7" y="180.2" class="st9" width="22.1" height="12.3"/>
<rect x="714.6" y="199.2" class="st9" width="22.1" height="12.3"/>
<rect x="714.7" y="218.1" class="st9" width="22.1" height="12.3"/>
<rect x="714.6" y="237.1" class="st9" width="22.1" height="12.3"/>
<rect x="714.7" y="256" class="st9" width="22.1" height="12.3"/>
<rect x="714.6" y="275" class="st9" width="22.1" height="12.3"/>
<rect x="714.6" y="293.9" class="st9" width="22.1" height="12.3"/>
<rect x="714.6" y="312.9" class="st9" width="22.1" height="12.3"/>
<rect x="714.6" y="331.8" class="st9" width="22.1" height="12.3"/>
<rect x="714.6" y="350.8" class="st9" width="22.1" height="12.3"/>
<rect x="714.6" y="369.7" class="st9" width="22.1" height="12.3"/>
<rect x="714.7" y="388.7" class="st9" width="22.1" height="12.3"/>
<rect x="714.7" y="85.4" class="st9" width="22.1" height="12.3"/>
<rect x="63.6" y="85.4" class="st9" width="22.1" height="12.3"/>
<rect x="714.2" y="407.6" class="st9" width="22.1" height="12.3"/>
<rect x="714.3" y="426.6" class="st9" width="22.1" height="12.3"/>
<rect x="714.2" y="445.5" class="st9" width="22.1" height="12.3"/>
<rect x="714.3" y="464.5" class="st9" width="22.1" height="12.3"/>
<rect x="714.2" y="483.4" class="st9" width="22.1" height="12.3"/>
<rect x="714.3" y="502.3" class="st9" width="22.1" height="12.3"/>
<rect x="63.7" y="104.4" class="st9" width="22.1" height="12.3"/>
<rect x="63.6" y="123.3" class="st9" width="22.1" height="12.3"/>
<rect x="63.7" y="142.3" class="st9" width="22.1" height="12.3"/>
<rect x="63.6" y="161.2" class="st9" width="22.1" height="12.3"/>
<rect x="63.6" y="180.2" class="st9" width="22.1" height="12.3"/>
<rect x="63.6" y="199.1" class="st9" width="22.1" height="12.3"/>
<rect x="63.6" y="218.1" class="st9" width="22.1" height="12.3"/>
<rect x="63.6" y="237" class="st9" width="22.1" height="12.3"/>
<rect x="63.6" y="256" class="st9" width="22.1" height="12.3"/>
<rect x="63.6" y="274.9" class="st9" width="22.1" height="12.3"/>
<rect x="63.6" y="293.8" class="st9" width="22.1" height="12.3"/>
<rect x="63.6" y="312.8" class="st9" width="22.1" height="12.3"/>
<rect x="63.6" y="331.7" class="st9" width="22.1" height="12.3"/>
<rect x="63.6" y="350.7" class="st9" width="22.1" height="12.3"/>
<rect x="63.6" y="369.6" class="st9" width="22.1" height="12.3"/>
<rect x="63.7" y="388.6" class="st9" width="22.1" height="12.3"/>
<rect x="63.2" y="407.5" class="st9" width="22.1" height="12.3"/>
<rect x="63.3" y="426.5" class="st9" width="22.1" height="12.3"/>
<rect x="63.2" y="445.4" class="st9" width="22.1" height="12.3"/>
<rect x="63.3" y="464.4" class="st9" width="22.1" height="12.3"/>
<rect x="63.2" y="483.3" class="st9" width="22.1" height="12.3"/>
<rect x="63.2" y="502.3" class="st9" width="22.1" height="12.3"/>
<rect x="109.6" y="44.8" class="st9" width="12.3" height="22.1"/>
<rect x="128.6" y="44.8" class="st9" width="12.3" height="22.1"/>
<rect x="147.5" y="44.8" class="st9" width="12.3" height="22.1"/>
<rect x="166.5" y="44.8" class="st9" width="12.3" height="22.1"/>
<rect x="185.4" y="44.8" class="st9" width="12.3" height="22.1"/>
<rect x="204.4" y="44.8" class="st9" width="12.3" height="22.1"/>
<rect x="223.3" y="44.8" class="st9" width="12.3" height="22.1"/>
<rect x="242.3" y="44.8" class="st9" width="12.3" height="22.1"/>
<rect x="261.2" y="44.8" class="st9" width="12.3" height="22.1"/>
<rect x="280.2" y="44.8" class="st9" width="12.3" height="22.1"/>
<rect x="299.1" y="44.8" class="st9" width="12.3" height="22.1"/>
<rect x="318.1" y="44.8" class="st9" width="12.3" height="22.1"/>
<rect x="337" y="44.8" class="st9" width="12.3" height="22.1"/>
<rect x="355.9" y="44.8" class="st9" width="12.3" height="22.1"/>
<rect x="374.9" y="44.8" class="st9" width="12.3" height="22.1"/>
<rect x="393.8" y="44.8" class="st9" width="12.3" height="22.1"/>
<rect x="412.8" y="45.2" class="st9" width="12.3" height="22.1"/>
<rect x="431.7" y="45.2" class="st9" width="12.3" height="22.1"/>
<rect x="450.7" y="45.2" class="st9" width="12.3" height="22.1"/>
<rect x="469.6" y="45.2" class="st9" width="12.3" height="22.1"/>
<rect x="488.6" y="45.2" class="st9" width="12.3" height="22.1"/>
<rect x="507.5" y="45.2" class="st9" width="12.3" height="22.1"/>
<rect x="526.5" y="45.2" class="st9" width="12.3" height="22.1"/>
<rect x="545.4" y="45.2" class="st9" width="12.3" height="22.1"/>
<rect x="564.4" y="45.2" class="st9" width="12.3" height="22.1"/>
<rect x="583.3" y="45.2" class="st9" width="12.3" height="22.1"/>
<rect x="602.3" y="45.2" class="st9" width="12.3" height="22.1"/>
<rect x="621.2" y="45.2" class="st9" width="12.3" height="22.1"/>
<rect x="640.2" y="45.2" class="st9" width="12.3" height="22.1"/>
<rect x="659.1" y="45.2" class="st9" width="12.3" height="22.1"/>
<rect x="678" y="45.2" class="st9" width="12.3" height="22.1"/>
<rect x="109.6" y="532.8" class="st9" width="12.3" height="22.1"/>
<rect x="128.6" y="532.8" class="st9" width="12.3" height="22.1"/>
<rect x="147.5" y="532.8" class="st9" width="12.3" height="22.1"/>
<rect x="166.5" y="532.8" class="st9" width="12.3" height="22.1"/>
<rect x="185.4" y="532.8" class="st9" width="12.3" height="22.1"/>
<rect x="204.4" y="532.8" class="st9" width="12.3" height="22.1"/>
<rect x="223.3" y="532.8" class="st9" width="12.3" height="22.1"/>
<rect x="242.3" y="532.8" class="st9" width="12.3" height="22.1"/>
<rect x="261.2" y="532.8" class="st9" width="12.3" height="22.1"/>
<rect x="280.2" y="532.8" class="st9" width="12.3" height="22.1"/>
<rect x="299.1" y="532.8" class="st9" width="12.3" height="22.1"/>
<rect x="318.1" y="532.8" class="st9" width="12.3" height="22.1"/>
<rect x="337" y="532.8" class="st9" width="12.3" height="22.1"/>
<rect x="355.9" y="532.8" class="st9" width="12.3" height="22.1"/>
<rect x="374.9" y="532.8" class="st9" width="12.3" height="22.1"/>
<rect x="393.8" y="532.8" class="st9" width="12.3" height="22.1"/>
<rect x="412.8" y="533.2" class="st9" width="12.3" height="22.1"/>
<rect x="431.7" y="533.2" class="st9" width="12.3" height="22.1"/>
<rect x="450.7" y="533.2" class="st9" width="12.3" height="22.1"/>
<rect x="469.6" y="533.2" class="st9" width="12.3" height="22.1"/>
<rect x="488.6" y="533.2" class="st9" width="12.3" height="22.1"/>
<rect x="507.5" y="533.2" class="st9" width="12.3" height="22.1"/>
<rect x="526.5" y="533.2" class="st9" width="12.3" height="22.1"/>
<rect x="545.4" y="533.2" class="st9" width="12.3" height="22.1"/>
<rect x="564.4" y="533.2" class="st9" width="12.3" height="22.1"/>
<rect x="583.3" y="533.2" class="st9" width="12.3" height="22.1"/>
<rect x="602.3" y="533.2" class="st9" width="12.3" height="22.1"/>
<rect x="621.2" y="533.2" class="st9" width="12.3" height="22.1"/>
<rect x="640.2" y="533.2" class="st9" width="12.3" height="22.1"/>
<rect x="659.1" y="533.2" class="st9" width="12.3" height="22.1"/>
<rect x="678" y="533.2" class="st9" width="12.3" height="22.1"/>
<path class="st10" d="M89.9,61.7h620.2c6.2,0,11.3,5.1,11.3,11.3v453.5c0,6.2-5.1,11.3-11.3,11.3H89.9c-6.2,0-11.3-5.1-11.3-11.3V73
	C78.6,66.8,83.7,61.7,89.9,61.7z"/>
<path class="st11" d="M159,87.6h212.2c6.5,0,11.8,5.3,11.8,11.8v184.9c0,6.5-5.3,11.8-11.8,11.8H159c-6.5,0-11.8-5.3-11.8-11.8V99.4
	C147.2,92.9,152.5,87.6,159,87.6z"/>
<path class="st12" d="M160.7,97.6h208.8c1.9,0,3.5,1.6,3.5,3.5v13.2c0,1.9-1.6,3.5-3.5,3.5H160.7c-1.9,0-3.5-1.6-3.5-3.5v-13.2
	C157.2,99.2,158.8,97.6,160.7,97.6z"/>
<path class="st12" d="M160.4,124h105.8c1.8,0,3.2,1.4,3.2,3.2V283c0,1.8-1.4,3.2-3.2,3.2H160.4c-1.8,0-3.2-1.4-3.2-3.2V127.2
	C157.2,125.4,158.6,124,160.4,124z"/>
<path class="st12" d="M278.1,124h92c1.6,0,2.9,1.3,2.9,2.9v44.2c0,1.6-1.3,2.9-2.9,2.9h-92c-1.6,0-2.9-1.3-2.9-2.9v-44.2
	C275.2,125.3,276.5,124,278.1,124z"/>
<path class="st12" d="M279,236.1h90.2c2.1,0,3.8,1.7,3.8,3.8v42.4c0,2.1-1.7,3.8-3.8,3.8H279c-2.1,0-3.8-1.7-3.8-3.8v-42.4
	C275.2,237.8,276.9,236.1,279,236.1z"/>
<path class="st12" d="M278.5,180h91.2c1.8,0,3.3,1.5,3.3,3.3v43.4c0,1.8-1.5,3.3-3.3,3.3h-91.2c-1.8,0-3.3-1.5-3.3-3.3v-43.4
	C275.2,181.5,276.7,180,278.5,180z"/>
<path d="M252.3,111l0.2,1.7c-1.1,0.3-2.2,0.5-3.3,0.5c-1.6,0-2.8-0.4-3.4-1.2s-1-2.2-1-4.2s0.3-3.4,1-4.2s1.8-1.2,3.4-1.2
	c1,0,2.1,0.2,3.1,0.4l-0.2,1.7h-2.9c-0.6,0-1.2,0.2-1.6,0.7c-0.5,1.8-0.5,3.6,0,5.4c0.4,0.5,1,0.7,1.6,0.7L252.3,111z"/>
<path d="M257.3,105.4c1.1-0.1,2.1,0.2,2.9,0.9c1.2,1.8,1.2,4.2,0,6c-1.7,1.2-4.1,1.2-5.8,0c-0.7-0.8-1-1.9-0.9-3
	c-0.1-1.1,0.2-2.2,0.9-3C255.2,105.6,256.2,105.3,257.3,105.4z M257.3,107c-0.5,0-0.9,0.1-1.2,0.5c-0.4,1.2-0.4,2.4,0,3.6
	c0.2,0.3,0.6,0.4,1.2,0.4s1-0.1,1.2-0.4c0.4-1.2,0.4-2.4,0-3.6C258.2,107.1,257.8,107,257.3,107z"/>
<path d="M267.9,105.4l-0.2,2h-0.6c-0.8,0.1-1.6,0.2-2.3,0.5v5.1h-2.2v-7.4h1.7l0.2,1.1c0.8-0.8,1.9-1.3,3-1.3L267.9,105.4z"/>
<path d="M273.6,110h-2.7c0,0.4,0.2,0.8,0.5,1.1c0.4,0.2,0.8,0.3,1.3,0.3l2.7-0.2l0.2,1.4c-1,0.5-2.1,0.7-3.2,0.6
	c-1.1,0.1-2.2-0.2-3-0.9c-0.6-0.9-0.9-1.9-0.8-3c-0.1-1.1,0.2-2.2,0.8-3.1c0.8-0.6,1.9-0.9,2.9-0.8c0.9-0.1,1.9,0.1,2.7,0.6
	c0.5,0.5,0.8,1.2,0.8,1.9c0.1,0.6-0.1,1.2-0.5,1.6C274.8,109.9,274.2,110,273.6,110z M270.9,108.7h2.1l0.5-0.2
	c0.1-0.2,0.2-0.4,0.2-0.6c0-0.3-0.1-0.5-0.3-0.7l-1-0.2c-0.4-0.1-0.9,0.1-1.2,0.3C271,107.7,270.9,108.2,270.9,108.7z"/>
<path d="M284.7,113h-2.3v-7.3c0-0.4,0-0.7,0.1-1.1l-2.4,0.6l-0.3-1.5l2.6-1.1h2.3L284.7,113z"/>
<path d="M188.2,133.4h3.6c0.7,0,1.3,0.2,1.8,0.6c0.5,0.6,0.7,1.4,0.6,2.2c0.1,0.6-0.1,1.2-0.4,1.7c-0.3,0.3-0.7,0.6-1.1,0.8l1.7,3.6
	h-1.5l-1.5-3.4h-1.8v3.5h-1.4L188.2,133.4z M191.5,137.7c0.3,0,0.7-0.1,0.9-0.3c0.2-0.4,0.3-0.8,0.3-1.2c0.1-0.4,0-0.8-0.3-1.1
	c-0.2-0.2-0.6-0.3-0.9-0.3h-1.9v2.9L191.5,137.7z"/>
<path d="M196.4,142c-0.4-0.2-0.7-0.5-0.9-0.9c-0.2-0.6-0.3-1.3-0.3-2c0-0.7,0.1-1.4,0.3-2.1c0.1-0.4,0.4-0.8,0.8-0.9
	c0.5-0.2,1.1-0.3,1.7-0.3c0.5,0,1,0,1.5,0.2c0.3,0.1,0.6,0.3,0.8,0.6c0.2,0.4,0.3,0.8,0.3,1.3c0.1,0.5-0.2,1-0.6,1.3
	c-0.4,0.3-0.9,0.4-1.4,0.4h-1.9c0,0.3,0.1,0.7,0.2,1c0,0.2,0.2,0.4,0.5,0.5h3v0.9l-1.2,0.2H198C197.5,142.3,196.9,142.2,196.4,142z
	 M198.4,138.7l0.6-0.2c0.2-0.1,0.2-0.3,0.2-0.6c0-0.3,0-0.6-0.2-0.8c-0.3-0.2-0.6-0.3-1-0.3l-0.8,0.2c-0.2,0.1-0.4,0.4-0.4,0.6
	c-0.1,0.4-0.1,0.7-0.1,1.1H198.4z"/>
<path d="M207.8,136.7h-1.1c0.2,0.2,0.3,0.4,0.4,0.6c0.1,0.3,0.2,0.6,0.2,0.9c0,0.5-0.2,1-0.6,1.4c-0.5,0.4-1.1,0.5-1.7,0.5h-1.1
	c-0.6,0-0.9,0.2-0.9,0.6l0.2,0.3h2.3c0.6-0.1,1.2,0.1,1.7,0.4c0.4,0.4,0.6,0.9,0.6,1.5v0.2c0,0.5-0.2,1.1-0.6,1.4
	c-0.5,0.4-1.2,0.6-1.8,0.5h-1.9c-0.5,0-1.1-0.1-1.5-0.4c-0.4-0.2-0.6-0.6-0.6-1.1v-0.2c0-0.3,0.1-0.7,0.3-0.9l0.7-0.6
	c-0.2-0.1-0.4-0.2-0.5-0.4c-0.1-0.2-0.1-0.4-0.1-0.6c0-0.3,0.1-0.6,0.3-0.8c0.1-0.2,0.4-0.3,0.7-0.4c-0.3-0.2-0.6-0.5-0.8-0.8
	c-0.1-0.4-0.2-0.7-0.2-1.1c0-0.6,0.2-1.2,0.6-1.6c0.6-0.4,1.3-0.5,2-0.5h3.4L207.8,136.7z M203.9,142.3l-0.8,0.2
	c-0.2,0.2-0.3,0.4-0.3,0.7v0.2c0,0.2,0.1,0.4,0.3,0.6l0.8,0.2h1.3l0.9-0.2c0.2-0.2,0.3-0.4,0.3-0.7v-0.2c0-0.5-0.4-0.8-1.1-0.8
	H203.9z M205.7,138.8c0.2-0.1,0.2-0.4,0.2-0.7s0-0.7-0.2-0.9l-0.8-0.2h-0.7c-0.3,0-0.6,0-0.8,0.2c-0.2,0.2-0.3,0.5-0.3,0.8
	c0,0.4,0.1,0.7,0.3,0.8c0.2,0.2,0.4,0.3,0.7,0.3h0.7C205.1,139.1,205.5,139,205.7,138.8L205.7,138.8z"/>
<path d="M208.9,134.8v-1.5h1.4v1.3c0,0.2-0.1,0.2-0.2,0.2h-1.3H208.9z M208.8,135.8h1.5v6.5h-1.5V135.8z"/>
<path d="M212.8,142.3l-1.1-0.2v-0.9h3.5c0.1-0.1,0.2-0.3,0.2-0.5v-0.3c0-0.2-0.1-0.4-0.2-0.5h-1.7c-1.3,0-1.9-0.6-1.9-1.7v-0.4
	c0-0.5,0.2-1,0.5-1.4c0.6-0.3,1.2-0.5,1.9-0.4h2.4v0.9h-2.6c-0.3,0-0.5,0-0.7,0.2c-0.2,0.1-0.3,0.3-0.3,0.5v0.3
	c0,0.2,0.1,0.4,0.3,0.5h1.7c0.5,0,1,0.1,1.4,0.4c0.3,0.3,0.4,0.8,0.4,1.2v0.6c0,0.5-0.2,1-0.6,1.3c-0.6,0.3-1.2,0.4-1.8,0.4
	L212.8,142.3z"/>
<path d="M218.7,141.8c-0.4-0.5-0.5-1.1-0.4-1.7V137h-1v-0.9l1.1-0.3l0.2-1.8h1.1v1.8h1.7v1.2h-1.7v3.1c0,0.2,0.1,0.5,0.2,0.7
	l0.6,0.3h0.8v1.1h-1.1C219.7,142.3,219.1,142.1,218.7,141.8z"/>
<path d="M223.4,142c-0.4-0.2-0.7-0.5-0.9-0.9c-0.1-0.7-0.2-1.3-0.2-2c0-0.7,0.1-1.4,0.2-2.1c0.2-0.4,0.5-0.7,0.9-0.9
	c0.5-0.2,1.1-0.3,1.6-0.3c0.5-0.1,1,0,1.5,0.2c0.4,0.1,0.7,0.3,0.9,0.6c0.1,0.4,0.2,0.9,0.2,1.3c0,0.5-0.1,1-0.5,1.3
	c-0.4,0.3-1,0.5-1.5,0.4h-1.9c0,0.3,0.1,0.7,0.2,1c0.1,0.2,0.3,0.4,0.5,0.5h3v0.9l-1.1,0.2h-1.2C224.5,142.3,223.9,142.2,223.4,142z
	 M225.5,138.7l0.6-0.2c0.1-0.2,0.2-0.4,0.2-0.6c0-0.4-0.1-0.7-0.3-0.8c-0.3-0.2-0.6-0.3-1-0.3l-0.7,0.2c-0.2,0.1-0.4,0.3-0.5,0.6
	c0,0.2-0.1,0.6-0.1,1.1H225.5z"/>
<path d="M228.9,135.8h1.2l0.3,1.1c0.2-0.3,0.6-0.6,0.9-0.8c0.3-0.2,0.7-0.3,1.1-0.3h0.5v1.5h-0.7l-1,0.2c-0.3,0.1-0.6,0.3-0.8,0.6
	v4.2h-1.5V135.8z"/>
<path d="M234.9,142.3l-1.1-0.2v-0.9h3.5c0.1-0.1,0.2-0.3,0.2-0.5v-0.3c0-0.2-0.1-0.4-0.2-0.5h-1.7c-1.3,0-1.9-0.6-1.9-1.7v-0.4
	c0-0.5,0.2-1,0.5-1.4c0.6-0.3,1.2-0.5,1.9-0.4h2.4v0.9h-2.6c-0.3,0-0.5,0-0.7,0.2c-0.2,0.1-0.3,0.3-0.3,0.5v0.3
	c0,0.2,0.1,0.4,0.3,0.5h1.7c0.5,0,1,0.1,1.4,0.4c0.3,0.3,0.5,0.7,0.5,1.2v0.6c0,0.5-0.3,1-0.7,1.3c-0.6,0.3-1.2,0.4-1.8,0.4
	L234.9,142.3z"/>
<path d="M291.3,131.7h1.9l2.9,8.9h-1.6l-0.7-2.1h-3.2l-0.6,2.1h-1.6L291.3,131.7z M293.5,137.1l-1.3-4.1l-1.2,4.1H293.5z"/>
<path d="M297.3,139.9c-0.5-0.7-0.8-1.6-0.7-2.5c0-0.7,0.1-1.4,0.4-2c0.2-0.4,0.5-0.8,0.9-1c0.4-0.2,0.9-0.3,1.4-0.3
	c0.7,0,1.5,0,2.2,0.2v0.9h-1.7c-0.3,0-0.7,0-1,0.2c-0.2,0.1-0.4,0.3-0.5,0.6c-0.1,0.5-0.2,0.9-0.2,1.4c0,0.4,0.1,0.9,0.2,1.3
	c0.1,0.3,0.3,0.5,0.5,0.7h2.8v0.9l-1.1,0.2h-1.2C298.6,140.6,297.9,140.4,297.3,139.9z"/>
<path d="M303.2,139.9c-0.5-0.7-0.8-1.6-0.7-2.5c0-0.7,0.1-1.4,0.3-2c0.2-0.4,0.5-0.8,0.9-1c0.5-0.2,1-0.3,1.5-0.3
	c0.7,0,1.5,0,2.2,0.2v0.9h-1.7c-0.3-0.1-0.7,0-1,0.2c-0.2,0.1-0.4,0.3-0.5,0.6c-0.1,0.5-0.2,0.9-0.2,1.4c0,0.4,0.1,0.9,0.2,1.3
	c0.1,0.3,0.3,0.5,0.5,0.7h2.8v0.9l-1.1,0.2h-1.2C304.5,140.6,303.8,140.4,303.2,139.9z"/>
<path d="M309.1,140.1c-0.4-0.4-0.6-0.9-0.5-1.4v-4.6h1.5v4.2c0,0.3,0.1,0.6,0.2,0.8c0.2,0.2,0.5,0.2,0.9,0.2c0.5,0,1.1-0.2,1.5-0.5
	v-4.7h1.5v6.5H313l-0.3-0.7c-0.6,0.5-1.4,0.8-2.2,0.8C310,140.7,309.4,140.5,309.1,140.1z"/>
<path d="M315.7,134.1h1.2l0.3,0.7l1-0.6l1.2-0.2c0.4,0,0.7,0.1,1,0.3l0.7,0.7c0.3-0.3,0.7-0.5,1.1-0.7l1.3-0.3c1.3,0,2,0.8,2,2.4
	v4.2H324v-4.1c0.1-0.5-0.3-1-0.9-1.1c-0.1,0-0.1,0-0.2,0h-0.8l-0.8,0.5v4.6h-1.4v-4.1c0-0.3-0.1-0.6-0.3-0.8
	c-0.2-0.2-0.5-0.3-0.8-0.3H318l-0.8,0.4v4.7h-1.5V134.1z"/>
<path d="M327.4,140.1c-0.3-0.4-0.5-0.9-0.5-1.4v-4.6h1.5v4.2c0,0.3,0.1,0.6,0.3,0.8c0.2,0.2,0.5,0.2,0.8,0.2c0.6,0,1.1-0.1,1.6-0.5
	v-4.7h1.5v6.5h-1.2l-0.3-0.7c-0.7,0.5-1.5,0.8-2.3,0.8C328.3,140.7,327.8,140.5,327.4,140.1z"/>
<path d="M334.5,140.1c-0.3-0.5-0.5-1-0.4-1.6v-7.1h1.5v6.9c0,0.3,0,0.6,0.1,0.9l0.6,0.3h0.6v1.1H336
	C335.5,140.6,334.9,140.4,334.5,140.1z"/>
<path d="M337.9,140.2c-0.3-0.3-0.5-0.7-0.5-1.2v-0.5c0-0.5,0.2-0.9,0.6-1.2c0.4-0.4,1-0.5,1.5-0.5h1.9v-0.6c0-0.2-0.1-0.4-0.2-0.5
	c0-0.2-0.2-0.3-0.4-0.4h-2.9v-0.8c0.8-0.2,1.7-0.3,2.5-0.3c0.7-0.1,1.3,0.1,1.9,0.4c0.4,0.5,0.5,1.1,0.5,1.7v4.4h-1.1l-0.3-0.7
	l-0.5,0.3l-0.8,0.3l-1,0.2C338.6,140.8,338.2,140.6,337.9,140.2z M340.7,139.4l0.7-0.2v-1.7H340c-0.7,0-1.1,0.4-1.1,0.9v0.3
	c0,0.2,0.1,0.5,0.3,0.6l0.6,0.2L340.7,139.4z"/>
<path d="M345.1,140.1c-0.3-0.5-0.5-1.1-0.4-1.7v-3.1h-1v-0.9l1.1-0.3l0.2-1.8h1.2v1.8h1.6v1.2h-1.6v3.1c0,0.3,0,0.6,0.2,0.7
	c0.1,0.2,0.3,0.3,0.5,0.3h0.8v1.1h-1C346.1,140.6,345.6,140.4,345.1,140.1z"/>
<path d="M349.9,140.3c-0.4-0.2-0.7-0.6-0.9-1c-0.2-0.6-0.3-1.3-0.3-1.9c0-0.7,0.1-1.4,0.3-2.1c0.2-0.4,0.5-0.8,0.9-1l1.7-0.2
	l1.7,0.2c0.4,0.2,0.7,0.6,0.9,1c0.2,0.7,0.3,1.4,0.3,2.1c0,0.7-0.1,1.4-0.3,2c-0.2,0.4-0.5,0.8-0.9,1l-1.7,0.2
	C351,140.6,350.4,140.5,349.9,140.3z M352.4,139.3c0.2-0.1,0.4-0.3,0.5-0.6c0-0.3,0.1-0.7,0.1-1.4s-0.1-1-0.1-1.3
	c-0.1-0.3-0.3-0.5-0.5-0.6l-0.8-0.2c-0.3,0-0.6,0.1-0.8,0.2c-0.2,0.1-0.4,0.3-0.5,0.6c-0.1,0.4-0.1,0.9-0.1,1.3c0,0.5,0,0.9,0.1,1.4
	c0.1,0.3,0.3,0.5,0.5,0.6l0.8,0.2L352.4,139.3z"/>
<path d="M355.8,134.1h1.2l0.3,1.1c0.2-0.3,0.6-0.6,0.9-0.8c0.3-0.2,0.7-0.3,1.1-0.3h0.5v1.5h-0.7l-1,0.2c-0.3,0.1-0.6,0.3-0.8,0.6
	v4.2h-1.5V134.1z"/>
<path d="M292.5,252.5c-0.5-0.3-0.8-0.8-1-1.3c-0.2-0.9-0.3-1.9-0.3-2.9c0-0.9,0.1-1.8,0.3-2.7c0.2-0.6,0.6-1.1,1.1-1.4
	c0.6-0.3,1.2-0.4,1.8-0.4l1.4,0.2l1.3,0.2v1.2l-1.1-0.2h-1.3l-1.3,0.2c-0.2,0.3-0.4,0.6-0.6,0.9c-0.1,0.7-0.2,1.3-0.2,2
	c0,0.7,0.1,1.3,0.2,2c0,0.4,0.3,0.8,0.6,1l1.3,0.2h2.4v1.1c-0.9,0.3-1.9,0.4-2.8,0.4C293.7,253,293.1,252.8,292.5,252.5z"/>
<path d="M299.2,252.5c-0.4-0.2-0.7-0.6-0.9-1c-0.2-0.6-0.3-1.3-0.3-1.9c0-0.7,0.1-1.4,0.3-2.1c0.2-0.4,0.5-0.8,0.9-1l1.7-0.2
	l1.7,0.2c0.4,0.2,0.7,0.6,0.9,1c0.2,0.7,0.3,1.4,0.3,2.1c0,0.7-0.1,1.4-0.3,2c-0.2,0.4-0.5,0.8-0.9,1l-1.7,0.2
	C300.3,252.8,299.7,252.7,299.2,252.5z M301.7,251.5c0.2-0.1,0.4-0.3,0.5-0.6c0-0.3,0.1-0.7,0.1-1.4s-0.1-1-0.1-1.3
	c-0.1-0.3-0.3-0.5-0.5-0.6h-1.6c-0.2,0.1-0.4,0.3-0.5,0.6c-0.1,0.4-0.1,0.9-0.1,1.3c0,0.5,0,0.9,0.1,1.4c0.1,0.3,0.3,0.5,0.5,0.6
	l0.8,0.2L301.7,251.5z"/>
<path d="M305.1,246.4h1.2l0.3,0.6c0.3-0.2,0.6-0.4,1-0.5l1.1-0.3c0.6-0.1,1.2,0.2,1.6,0.7c0.3,0.5,0.5,1,0.4,1.6v4.3h-1.5v-4.1
	c0-0.4,0-0.6-0.2-0.8c-0.2-0.2-0.5-0.3-0.8-0.3h-0.8l-0.8,0.4v4.7h-1.5L305.1,246.4z"/>
<path d="M313,252.3c-0.3-0.5-0.5-1.1-0.4-1.7v-3h-1v-1l1.1-0.2l0.2-1.8h1.2v1.8h1.6v1.2h-1.6v3c0,0.3,0,0.6,0.2,0.7
	c0.1,0.2,0.3,0.3,0.5,0.3h0.8v1.1h-1C314,252.8,313.5,252.6,313,252.3z"/>
<path d="M316.8,246.4h1.1l0.4,1c0.2-0.3,0.6-0.6,0.9-0.8c0.3-0.2,0.6-0.3,1-0.3h0.6v1.6h-0.7l-1,0.2c-0.3,0.1-0.6,0.3-0.8,0.6v4.2
	h-1.5V246.4z"/>
<path d="M322.8,252.5c-0.4-0.2-0.7-0.6-0.9-1c-0.2-0.6-0.3-1.3-0.3-1.9c0-0.7,0.1-1.4,0.3-2.1c0.2-0.4,0.5-0.8,0.9-1l1.7-0.2
	l1.7,0.2c0.4,0.2,0.7,0.6,0.9,1c0.2,0.7,0.3,1.4,0.3,2.1c0,0.7-0.1,1.4-0.3,2c-0.2,0.4-0.5,0.8-0.9,1l-1.7,0.2
	C323.9,252.8,323.3,252.7,322.8,252.5z M325.3,251.5c0.2-0.1,0.4-0.3,0.5-0.6c0.1-0.5,0.1-0.9,0.1-1.4c0-0.4,0-0.9-0.1-1.3
	c-0.1-0.3-0.3-0.5-0.5-0.6h-1.6c-0.2,0.1-0.4,0.3-0.5,0.6c0,0.3-0.1,0.7-0.1,1.3s0.1,1.1,0.1,1.4c0.1,0.3,0.3,0.5,0.5,0.6l0.8,0.2
	L325.3,251.5z"/>
<path d="M329.2,252.3c-0.4-0.5-0.5-1-0.5-1.6v-7.1h1.5v6.9c0,0.3,0.1,0.6,0.2,0.9l0.6,0.3h0.5v1.1h-0.9
	C330.1,252.8,329.6,252.6,329.2,252.3z"/>
<path d="M336.4,252.2c-0.7-0.5-1-1.4-0.9-2.2v-6.1h1.5v6.1c-0.1,0.5,0.1,0.9,0.5,1.2c0.9,0.4,1.9,0.4,2.8,0c0.3-0.3,0.5-0.7,0.5-1.2
	v-6.1h1.5v6.1c0.1,0.8-0.2,1.7-0.9,2.2C339.8,253,338,253,336.4,252.2z"/>
<path d="M343.7,246.4h1.2l0.3,0.6l1-0.5l1.2-0.3c0.6-0.1,1.2,0.2,1.5,0.7c0.3,0.5,0.5,1,0.5,1.6v4.3h-1.5v-4.1
	c0-0.3-0.1-0.6-0.3-0.8c-0.2-0.2-0.5-0.3-0.8-0.3H346l-0.8,0.4v4.7h-1.5V246.4z"/>
<path d="M350.9,245.3v-1.5h1.4v1.3c0,0.2-0.1,0.2-0.2,0.2h-1.3H350.9z M350.8,246.4h1.5v6.4h-1.5V246.4z"/>
<path d="M354.7,252.3c-0.4-0.5-0.5-1.1-0.5-1.7v-3h-1v-1l1-0.2l0.2-1.8h1.2v1.8h1.6v1.2h-1.6v3c0,0.2,0.1,0.5,0.2,0.7
	c0.1,0.2,0.4,0.3,0.6,0.3h0.8v1.1h-1.1C355.6,252.7,355.1,252.6,354.7,252.3z"/>
<path d="M316,187.4h1.9l2.8,8.9h-1.5l-0.7-2.1h-3.2l-0.7,2.1h-1.5L316,187.4z M318.1,192.9l-1.2-4.2l-1.3,4.2H318.1z"/>
<path d="M322.3,195.8c-0.4-0.4-0.5-1-0.5-1.5v-6.9h1.5v6.7c0,0.2,0.1,0.5,0.2,0.7h3.6v1.4h-3.3C323.3,196.2,322.7,196.1,322.3,195.8
	z"/>
<path d="M328.8,195.7c-0.7-0.5-1-1.4-0.9-2.2v-6.1h1.5v6.1c0,0.5,0.2,0.9,0.5,1.2c0.9,0.4,1.9,0.4,2.8,0c0.4-0.3,0.6-0.7,0.5-1.2
	v-6.1h1.5v6.1c0.1,0.8-0.2,1.7-0.9,2.2C332.2,196.5,330.4,196.5,328.8,195.7z"/>
<rect x="285.2" y="145.7" class="st6" width="77.8" height="20"/>
<rect x="285.2" y="200.5" class="st6" width="77.8" height="20"/>
<rect x="285.2" y="257" class="st6" width="77.8" height="20"/>
<path d="M321.6,159.3c-0.4-0.4-0.6-1-0.6-1.6v-4.5c0-0.6,0.2-1.2,0.6-1.7c0.5-0.4,1.1-0.7,1.7-0.6h1.8c0.6,0,1.2,0.2,1.6,0.6
	c0.4,0.5,0.6,1.1,0.6,1.7v4.5c0,0.6-0.2,1.2-0.6,1.6c-0.4,0.4-1,0.6-1.6,0.6h-1.9C322.6,159.9,322,159.7,321.6,159.3z M324.7,158.6
	c0.7,0,1.1-0.4,1.1-1.2v-4c0.1-0.5-0.3-1-0.9-1.1c-0.1,0-0.1,0-0.2,0h-1.2c-0.3,0-0.6,0-0.8,0.2c-0.2,0.2-0.3,0.6-0.3,0.9v4
	c-0.1,0.6,0.4,1.1,1,1.2c0.1,0,0.1,0,0.2,0L324.7,158.6z"/>
<path d="M321.6,270.9c-0.4-0.5-0.7-1.1-0.6-1.7v-4.4c0-0.6,0.2-1.2,0.6-1.7c0.5-0.4,1.1-0.7,1.7-0.6h1.8c0.6,0,1.2,0.2,1.6,0.6
	c0.4,0.5,0.6,1.1,0.6,1.7v4.4c0.1,0.6-0.2,1.2-0.6,1.7c-0.4,0.4-1,0.6-1.6,0.6h-1.9C322.6,271.5,322,271.3,321.6,270.9z
	 M324.7,270.1c0.5,0.1,1-0.3,1.1-0.9c0-0.1,0-0.1,0-0.2v-4.1c0.1-0.5-0.3-1-0.9-1.1c-0.1,0-0.1,0-0.2,0h-1.2c-0.5-0.1-1,0.3-1.1,0.9
	c0,0.1,0,0.1,0,0.2v4.1c0,0.3,0.1,0.7,0.3,0.9l0.9,0.2H324.7z"/>
<path d="M321.6,213.7c-0.4-0.5-0.7-1.1-0.6-1.7v-4.4c-0.1-1.2,0.7-2.2,1.9-2.3c0.1,0,0.3,0,0.4,0h1.8c0.6,0,1.2,0.2,1.6,0.6
	c0.4,0.5,0.7,1.1,0.6,1.7v4.4c0.1,0.6-0.2,1.2-0.6,1.7c-0.4,0.4-1,0.6-1.6,0.6h-1.9C322.6,214.3,322,214.1,321.6,213.7z
	 M324.7,212.9c0.5,0.1,1-0.3,1.1-0.9c0-0.1,0-0.1,0-0.2v-4.1c0.1-0.5-0.3-1-0.9-1.1c-0.1,0-0.1,0-0.2,0h-1.2c-0.5-0.1-1,0.3-1.1,0.9
	c0,0.1,0,0.1,0,0.2v4.1c0,0.4,0.1,0.7,0.3,0.8c0.2,0.2,0.6,0.3,0.9,0.3H324.7z"/>
<rect x="173.4" y="155.6" class="st13" width="40.4" height="25"/>
<rect x="213.8" y="155.6" class="st6" width="40" height="25"/>
<rect x="173.6" y="185.2" class="st13" width="40.4" height="25"/>
<rect x="214" y="185.2" class="st6" width="40" height="25"/>
<rect x="173.4" y="214.9" class="st13" width="40.4" height="25"/>
<rect x="213.8" y="214.9" class="st6" width="40" height="25"/>
<rect x="173.4" y="244.6" class="st13" width="40.4" height="25"/>
<rect x="213.8" y="244.6" class="st6" width="40" height="25"/>
<path class="st6" d="M187.5,172.3v-7.6h3.1c0.8-0.1,1.6,0.1,2.3,0.5c0.5,0.5,0.8,1.3,0.7,2c0.1,0.7-0.1,1.4-0.6,2
	c-0.6,0.4-1.4,0.6-2.1,0.5h-1.3v2.8L187.5,172.3z M189.6,168.1h0.9l0.8-0.2c0.3-0.5,0.3-1.1,0-1.6c-0.1-0.2-0.4-0.2-0.8-0.2h-0.9
	V168.1z"/>
<path class="st6" d="M200,170.5v1.5c-0.8,0.3-1.6,0.4-2.5,0.4c-1,0.1-1.9-0.2-2.6-0.9c-0.6-0.9-0.9-1.9-0.8-3
	c-0.1-1.1,0.2-2.2,0.8-3.1c0.7-0.7,1.6-1,2.6-0.9c0.8,0,1.6,0.1,2.4,0.3l-0.2,1.5h-2.2c-0.4-0.1-0.8,0.1-1,0.4
	c-0.2,0.6-0.2,1.2-0.2,1.8c0,0.6,0.1,1.1,0.2,1.7c0.2,0.3,0.6,0.5,1,0.4L200,170.5z"/>
<path d="M231.5,171.8c-0.4-0.4-0.6-1-0.6-1.6v-4c0-0.6,0.2-1.2,0.6-1.6c0.4-0.4,0.9-0.6,1.5-0.5h1.7c0.5,0,1.1,0.1,1.5,0.5
	c0.3,0.5,0.5,1,0.5,1.6v4c0,0.6-0.2,1.2-0.6,1.6c-0.4,0.3-0.9,0.5-1.4,0.5H233C232.5,172.3,231.9,172.2,231.5,171.8z M234.3,171.1
	c0.5,0.1,0.9-0.3,1-0.8c0-0.1,0-0.1,0-0.2v-3.8c0-0.7-0.3-1-0.9-1h-1.1l-0.8,0.2c-0.1,0.2-0.2,0.5-0.2,0.8v3.8
	c0,0.2,0.1,0.5,0.2,0.7c0.2,0.2,0.5,0.3,0.8,0.3H234.3z"/>
<path class="st6" d="M188.2,194.2h1.9c0.4,0,0.7,0.3,0.7,0.7c0,0,0,0.1,0,0.1l0.3,6.8h-1.9l-0.2-6h-0.2l-0.9,4.2
	c-0.1,0.4-0.4,0.7-0.8,0.7h-1.2c-0.5,0-0.7-0.2-0.8-0.7l-1-4.2H184l-0.2,6h-1.9l0.2-6.8c0.1-0.5,0.3-0.8,0.8-0.8h1.8
	c0.5,0,0.7,0.2,0.8,0.7l0.7,3.3c0.1,0.3,0.1,0.6,0.2,1.1h0.1c0.1-0.1,0.1-0.3,0.1-0.4c0-0.3,0.1-0.5,0.1-0.7l0.7-3.3
	C187.5,194.4,187.7,194.2,188.2,194.2z"/>
<path class="st6" d="M196.4,200h-2.3l-0.4,1.8h-2.1l2-7c0.1-0.2,0.1-0.3,0.3-0.4l0.4-0.2h1.9l0.5,0.2c0.1,0.1,0.2,0.2,0.2,0.4l2.1,7
	h-2.1L196.4,200z M196.1,198.5l-0.5-1.9l-0.2-0.8h-0.3c0,0.3-0.1,0.5-0.1,0.8l-0.5,1.9H196.1z"/>
<path class="st6" d="M206,201.8h-2.2l-0.5-2.3l-0.2-0.4h-1.5v2.8h-2v-7.6h3.1c0.8-0.1,1.6,0.1,2.3,0.5c0.5,0.4,0.8,1.1,0.7,1.8
	c0.1,0.9-0.5,1.7-1.4,1.8c0,0-0.1,0-0.1,0l0,0c0.7,0.1,1,0.5,1.2,1.2L206,201.8z M201.6,197.5h1l0.8-0.2c0.2-0.2,0.2-0.4,0.2-0.8
	s0-0.6-0.2-0.7l-0.8-0.2h-1V197.5z"/>
<path d="M231.6,201.3c-0.4-0.4-0.5-1-0.5-1.5v-4.1c0-0.5,0.2-1.1,0.5-1.5c0.4-0.4,1-0.6,1.6-0.6h1.6c0.6,0,1.2,0.2,1.6,0.6
	c0.3,0.4,0.5,1,0.5,1.5v4.1c0,1.2-0.9,2.1-2.1,2.1h0h-1.6C232.6,201.9,232,201.7,231.6,201.3z M234.5,200.6c0.7,0,1-0.3,1-1v-3.7
	c0-0.7-0.3-1-1-1h-1.1c-0.3,0-0.5,0-0.7,0.2c-0.2,0.2-0.3,0.5-0.3,0.8v3.7c0,0.3,0.1,0.6,0.3,0.8l0.8,0.2H234.5z"/>
<path class="st6" d="M184.7,218.8h1.9c0.5,0,0.7,0.3,0.8,0.8l0.2,6.8h-1.8l-0.3-6h-0.2l-0.9,4.2c-0.1,0.5-0.3,0.7-0.8,0.7h-1.2
	c-0.4,0-0.7-0.3-0.8-0.7l-0.9-4.2h-0.2l-0.2,6h-1.9l0.3-6.8c-0.1-0.4,0.2-0.7,0.6-0.8c0,0,0.1,0,0.1,0h1.9c0.4,0,0.7,0.3,0.8,0.7
	l0.7,3.3c0.1,0.3,0.1,0.6,0.2,1.1h0.1v-0.4c0.1-0.2,0.1-0.5,0.1-0.7l0.7-3.3C184,219.1,184.3,218.8,184.7,218.8z"/>
<path class="st6" d="M188.8,226.4v-7.6h3.1c1-0.1,1.9,0.2,2.7,0.8c0.9,2,0.9,4.2,0,6.2c-0.8,0.6-1.7,0.9-2.7,0.8L188.8,226.4z
	 M190.9,220.3v4.7h1c0.4,0,0.8-0.2,1-0.5c0.2-0.6,0.4-1.3,0.3-1.9c0-0.6-0.1-1.3-0.3-1.9c-0.2-0.3-0.6-0.5-1-0.4L190.9,220.3z"/>
<path class="st6" d="M202.8,226.4h-2.2l-0.5-2.3c0-0.2-0.1-0.3-0.2-0.4h-1.4v2.8h-2.1v-7.6h3.1c0.8-0.1,1.6,0.1,2.3,0.5
	c0.5,0.3,0.7,0.9,0.7,1.8c0.1,0.9-0.5,1.7-1.4,1.8c0,0-0.1,0-0.1,0l0,0c0.7,0.1,1,0.5,1.2,1.2L202.8,226.4z M198.5,222h1.7
	c0.2-0.2,0.2-0.4,0.2-0.8s0-0.6-0.2-0.7c-0.2-0.2-0.5-0.2-0.8-0.2h-0.9V222z"/>
<path class="st6" d="M204.8,227.2h-1.6l4.3-8.4h1.6L204.8,227.2z"/>
<path class="st6" d="M188.1,229.8h1.9c0.5,0,0.7,0.3,0.7,0.8l0.3,6.8h-1.9l-0.2-6h-0.2l-0.9,4.2c-0.1,0.4-0.4,0.7-0.8,0.7h-1.2
	c-0.4,0-0.7-0.3-0.8-0.7l-0.9-4.2h-0.2l-0.2,6h-1.9l0.3-6.8c0-0.5,0.2-0.8,0.7-0.8h1.9c0.4,0,0.7,0.3,0.8,0.7l0.7,3.3
	c0,0.3,0.1,0.6,0.1,1.1h0.1c0.1,0,0.1-0.2,0.1-0.4s0.1-0.5,0.1-0.7l0.7-3.3C187.4,230.1,187.7,229.8,188.1,229.8z"/>
<path class="st6" d="M196.7,233.4L196.7,233.4c0.6,0.1,1,0.2,1.2,0.6c0.3,0.4,0.4,0.9,0.4,1.4c0.1,0.6-0.1,1.2-0.6,1.6
	c-0.6,0.3-1.4,0.5-2.1,0.4h-3.4v-7.6h3.1c0.7,0,1.4,0.1,2.1,0.4c0.5,0.4,0.8,1,0.7,1.6c0,0.5-0.1,0.9-0.4,1.3
	C197.4,233.3,197.1,233.4,196.7,233.4z M194.2,232.8h1.7c0.1-0.2,0.2-0.5,0.2-0.7c0-0.2-0.1-0.5-0.2-0.7h-1.7V232.8z M194.2,236h1.8
	c0.2-0.2,0.2-0.4,0.2-0.8s0-0.7-0.2-0.8l-0.8-0.2h-1V236z"/>
<path class="st6" d="M205.7,237.4h-2.1l-0.6-2.3c0-0.2-0.1-0.3-0.2-0.4h-1.4v2.8h-2.1v-7.6h3.1c0.8-0.1,1.6,0.1,2.3,0.5
	c0.5,0.3,0.7,0.9,0.7,1.8c0.1,0.9-0.5,1.7-1.4,1.8c0,0-0.1,0-0.1,0l0,0c0.6,0,1.2,0.6,1.2,1.2L205.7,237.4z M201.4,233h1.8
	c0.1-0.2,0.2-0.5,0.2-0.8c0-0.2-0.1-0.5-0.2-0.7c-0.2-0.1-0.5-0.2-0.8-0.2h-1V233z"/>
<path d="M231.5,231c-0.4-0.4-0.6-0.9-0.6-1.5v-4.1c0-0.6,0.2-1.1,0.6-1.5c0.4-0.4,0.9-0.6,1.5-0.6h1.7c0.6,0,1.1,0.2,1.5,0.6
	c0.3,0.4,0.5,1,0.5,1.5v4.1c0,0.6-0.2,1.1-0.6,1.5c-0.4,0.4-0.9,0.6-1.4,0.5H233C232.4,231.6,231.9,231.4,231.5,231z M234.3,230.3
	c0.7,0,1-0.3,1-1v-3.7c0-0.7-0.3-1.1-0.9-1.1h-1.1c-0.3,0-0.6,0.1-0.8,0.3c-0.1,0.2-0.2,0.5-0.2,0.8v3.7c0,0.3,0.1,0.6,0.2,0.8
	l0.8,0.2H234.3z"/>
<path class="st6" d="M191.1,259.5l0.2,1.5c-0.8,0.2-1.7,0.3-2.5,0.3c-1,0.1-1.9-0.2-2.6-0.9c-0.6-0.9-0.9-1.9-0.8-3
	c-0.1-1.1,0.2-2.2,0.8-3.1c0.7-0.6,1.7-0.9,2.6-0.8l2.3,0.2v1.6h-2.2c-0.4,0-0.8,0.2-1,0.5c-0.2,0.6-0.2,1.1-0.2,1.7
	c0,0.6,0.1,1.1,0.2,1.7c0.2,0.3,0.6,0.5,1,0.5L191.1,259.5z"/>
<path class="st6" d="M194.3,261.2h-2.1v-7.6h2.1V261.2z"/>
<path class="st6" d="M202,261.2h-2.2l-0.5-2.3c-0.1-0.2-0.1-0.4-0.2-0.5h-1.5v2.9h-2v-7.6h3.1c0.8,0,1.6,0.1,2.3,0.5
	c0.5,0.3,0.7,0.9,0.7,1.8c0.1,0.9-0.5,1.7-1.4,1.8c0,0-0.1,0-0.1,0l0,0c0.6,0.1,1.1,0.5,1.2,1.1L202,261.2z M197.6,256.8h1
	c0.4,0,0.7,0,0.8-0.2s0.2-0.3,0.2-0.7s0-0.6-0.2-0.7l-0.8-0.2h-1V256.8z"/>
<path d="M231.5,260.7c-0.4-0.4-0.6-0.9-0.6-1.5v-4.1c0-0.6,0.2-1.2,0.6-1.6c0.4-0.3,1-0.5,1.5-0.5h1.7c0.6,0,1.1,0.2,1.5,0.6
	c0.4,0.4,0.5,1,0.5,1.5v4.1c0,0.6-0.2,1.1-0.6,1.5c-0.4,0.4-0.9,0.6-1.4,0.5H233C232.4,261.3,231.9,261.1,231.5,260.7z M234.3,260
	c0.7,0,1-0.3,1-1v-3.8c0-0.6-0.3-1-0.9-1h-1.1c-0.3,0-0.6,0.1-0.8,0.3c-0.1,0.2-0.2,0.5-0.2,0.7v3.8c0,0.2,0.1,0.5,0.2,0.7
	c0.2,0.2,0.5,0.3,0.8,0.3H234.3z"/>
<path class="st11" d="M431.8,87.9H644c6.5,0,11.8,5.3,11.8,11.8v184.9c0,6.5-5.3,11.8-11.8,11.8H431.8c-6.5,0-11.8-5.3-11.8-11.8
	V99.7C420,93.2,425.3,87.9,431.8,87.9z"/>
<path class="st12" d="M433.5,97.9h208.8c1.9,0,3.5,1.6,3.5,3.5v13.2c0,1.9-1.6,3.5-3.5,3.5H433.5c-1.9,0-3.5-1.6-3.5-3.5v-13.2
	C430,99.5,431.6,97.9,433.5,97.9z"/>
<path class="st12" d="M433.2,124.3H539c1.8,0,3.2,1.4,3.2,3.2v155.8c0,1.8-1.4,3.2-3.2,3.2H433.2c-1.8,0-3.2-1.4-3.2-3.2V127.5
	C430,125.7,431.4,124.3,433.2,124.3z"/>
<path class="st12" d="M550.9,124.3h92c1.6,0,2.9,1.3,2.9,2.9v44.2c0,1.6-1.3,2.9-2.9,2.9h-92c-1.6,0-2.9-1.3-2.9-2.9v-44.2
	C548,125.6,549.3,124.3,550.9,124.3z"/>
<path class="st12" d="M551.8,236.4H642c2.1,0,3.8,1.7,3.8,3.8v42.4c0,2.1-1.7,3.8-3.8,3.8h-90.2c-2.1,0-3.8-1.7-3.8-3.8v-42.4
	C548,238.1,549.7,236.4,551.8,236.4z"/>
<path class="st12" d="M551.3,180.4h91.2c1.8,0,3.3,1.5,3.3,3.3v43.4c0,1.8-1.5,3.3-3.3,3.3h-91.2c-1.8,0-3.3-1.5-3.3-3.3v-43.4
	C548,181.9,549.5,180.4,551.3,180.4z"/>
<path d="M524,111.4l0.2,1.7c-1.1,0.3-2.3,0.4-3.4,0.4c-1.6,0-2.7-0.4-3.3-1.2c-0.7-0.8-1-2.2-1-4.2s0.3-3.3,1-4.1s1.7-1.2,3.3-1.2
	c1.1,0,2.1,0.1,3.2,0.3l-0.2,1.7h-3c-0.6-0.1-1.2,0.2-1.5,0.7c-0.4,0.8-0.5,1.7-0.4,2.6c-0.1,0.9,0.1,1.8,0.4,2.7
	c0.3,0.5,0.9,0.8,1.5,0.7L524,111.4z"/>
<path d="M529,105.7c1-0.1,2.1,0.2,2.9,0.9c1.2,1.8,1.2,4.2,0,6c-0.8,0.7-1.9,1-2.9,0.9c-1.1,0.1-2.2-0.2-3-0.9c-1.1-1.9-1.1-4.1,0-6
	C526.8,105.9,527.9,105.6,529,105.7z M529,107.4c-0.6,0-1,0.1-1.2,0.4c-0.4,1.2-0.4,2.4,0,3.6c0.2,0.3,0.6,0.4,1.2,0.4
	c0.4,0.1,0.9-0.1,1.2-0.4c0.4-1.2,0.4-2.4,0-3.6C530,107.5,529.6,107.4,529,107.4z"/>
<path d="M539.6,105.7l-0.2,2.1h-0.6c-0.8,0-1.6,0.2-2.3,0.5v5h-2.2v-7.4h1.7l0.2,1.1c0.8-0.8,1.9-1.3,3-1.3L539.6,105.7z"/>
<path d="M545.3,110.3h-2.7c0.1,0.6,0.2,0.9,0.5,1.1c0.4,0.2,0.8,0.3,1.3,0.3c0.9,0,1.8,0,2.7-0.2l0.2,1.4c-1,0.5-2.1,0.7-3.2,0.6
	c-1.7,0.4-3.4-0.7-3.8-2.4c-0.1-0.5-0.1-1,0-1.5c0-1.4,0.2-2.5,0.8-3c0.8-0.7,1.9-1,2.9-0.9c0.9-0.1,1.9,0.1,2.7,0.6
	c0.5,0.5,0.8,1.2,0.8,2c0.1,0.6-0.1,1.1-0.5,1.5C546.5,110.2,545.9,110.4,545.3,110.3z M542.6,109h2.1l0.5-0.2
	c0.1-0.2,0.2-0.4,0.2-0.6c0-0.3-0.1-0.5-0.3-0.7c-0.3-0.1-0.7-0.2-1-0.2c-0.6,0-1,0.1-1.2,0.4C542.6,108.1,542.5,108.5,542.6,109z"
	/>
<path d="M552.2,104.9v-1.8c1.2-0.2,2.3-0.3,3.5-0.3c0.9-0.1,1.8,0.1,2.6,0.5c0.6,0.4,0.9,1.2,0.8,1.9c0,0.5-0.1,1.1-0.3,1.6
	c-0.4,0.7-0.8,1.3-1.4,1.8l-2.6,2.8l1.5-0.2h3.1v2.1H552V112c0-0.3,0.1-0.7,0.3-0.9l2.5-2.7c1.3-1.3,1.9-2.3,1.9-3
	c0-0.2-0.1-0.5-0.3-0.6h-1.1L552.2,104.9z"/>
<path d="M461,133.8h3.6c0.6-0.1,1.3,0.1,1.8,0.5c0.5,0.6,0.7,1.4,0.6,2.2c0.1,0.6-0.1,1.2-0.4,1.7c-0.3,0.4-0.7,0.7-1.1,0.8l1.7,3.6
	h-1.5l-1.5-3.4h-1.8v3.4H461V133.8z M464.3,138c0.3,0,0.7-0.1,0.9-0.3c0.2-0.3,0.4-0.8,0.3-1.2c0-0.4-0.1-0.8-0.3-1.1
	c-0.2-0.2-0.6-0.3-0.9-0.3h-1.9v2.9H464.3z"/>
<path d="M469.2,142.4c-0.4-0.2-0.7-0.6-0.9-1c-0.2-0.6-0.3-1.3-0.3-2c0-0.7,0.1-1.4,0.3-2c0.1-0.4,0.4-0.8,0.8-1
	c0.5-0.2,1.1-0.3,1.7-0.3l1.5,0.2c0.3,0.1,0.6,0.3,0.8,0.6c0.2,0.4,0.3,0.9,0.3,1.4c0,0.5-0.1,0.9-0.5,1.2c-0.4,0.3-1,0.4-1.5,0.4
	h-1.9c0,0.3,0.1,0.7,0.2,1c0.1,0.2,0.3,0.4,0.5,0.5l1,0.2h2v0.8l-1.2,0.2h-1.2C470.3,142.7,469.7,142.6,469.2,142.4z M471.2,139h0.7
	c0.1-0.1,0.1-0.3,0.1-0.6s0-0.7-0.2-0.9c-0.3-0.1-0.7-0.2-1-0.2H470c-0.2,0.1-0.4,0.4-0.4,0.6c-0.1,0.4-0.1,0.7-0.1,1.1L471.2,139z"
	/>
<path d="M480.7,137h-1.2l0.4,0.6c0.1,0.3,0.2,0.6,0.2,0.9c0,0.5-0.2,1.1-0.6,1.4c-0.4,0.4-1.1,0.7-1.7,0.6h-1.1
	c-0.6,0-0.9,0.1-0.9,0.5l0.2,0.3h2.3c0.6,0,1.3,0.1,1.8,0.5c0.4,0.4,0.5,0.9,0.5,1.4v0.2c0,0.6-0.2,1.1-0.6,1.5
	c-0.5,0.4-1.2,0.5-1.8,0.5h-1.9c-0.5,0-1-0.1-1.5-0.4c-0.4-0.3-0.6-0.7-0.6-1.2v-0.2c0-0.3,0.1-0.6,0.3-0.9c0.2-0.2,0.4-0.4,0.7-0.5
	l-0.5-0.5c-0.1-0.2-0.1-0.4-0.1-0.6c0-0.3,0.1-0.6,0.3-0.8c0.1-0.2,0.4-0.3,0.7-0.4c-0.3-0.2-0.6-0.5-0.8-0.8
	c-0.1-0.3-0.2-0.7-0.2-1c-0.1-0.6,0.1-1.2,0.6-1.6c0.6-0.4,1.3-0.6,2-0.5h3.5L480.7,137z M476.7,142.6c-0.3,0-0.6,0.1-0.8,0.3
	c-0.2,0.1-0.3,0.4-0.3,0.6v0.2c0,0.2,0.1,0.5,0.3,0.6l0.8,0.2h1.3l0.9-0.2c0.2-0.1,0.3-0.4,0.3-0.6v-0.2c0-0.6-0.3-0.9-1.1-0.9
	L476.7,142.6z M478.5,139.2c0.2-0.2,0.3-0.5,0.3-0.8c0-0.3-0.1-0.7-0.3-0.9l-0.8-0.2H477l-0.8,0.2c-0.2,0.2-0.3,0.5-0.3,0.8
	c0,0.3,0.1,0.7,0.3,0.9c0.2,0.2,0.4,0.2,0.7,0.2h0.7C477.9,139.4,478.2,139.3,478.5,139.2L478.5,139.2z"/>
<path d="M481.7,135.1c-0.1,0-0.1-0.1-0.1-0.2v-1.1c0-0.1,0-0.1,0.1-0.1l0,0h1.4c0.1,0,0.1,0,0.1,0.1v0v1.1c0,0.2-0.1,0.3-0.2,0.3
	h-1.3V135.1z M481.6,136.2h1.5v6.4h-1.5V136.2z"/>
<path d="M485.6,142.6l-1.1-0.2v-0.8h2.7l0.8-0.2c0.1-0.1,0.2-0.3,0.2-0.5v-0.2c0-0.2-0.1-0.4-0.2-0.5l-0.7-0.2h-1
	c-1.3,0-1.9-0.6-1.9-1.7V138c0-0.5,0.1-1,0.5-1.4c0.6-0.4,1.3-0.5,2-0.5h1.2l1.1,0.2v0.8h-2.6l-0.7,0.2c-0.2,0.1-0.2,0.3-0.2,0.6
	v0.2c0,0.2,0,0.4,0.2,0.5h1.7c0.5,0,1,0.1,1.4,0.4c0.3,0.3,0.5,0.8,0.5,1.3v0.5c0,0.5-0.3,1-0.7,1.3c-0.5,0.3-1.2,0.5-1.8,0.4
	L485.6,142.6z"/>
<path d="M491.5,142.1c-0.3-0.5-0.5-1.1-0.4-1.7v-3h-1v-1l1.1-0.2l0.2-1.8h1.1v1.8h1.7v1.2h-1.7v3c0,0.3,0.1,0.6,0.3,0.8l0.5,0.2h0.8
	v1.1H493C492.5,142.6,491.9,142.4,491.5,142.1z"/>
<path d="M496.2,142.4c-0.4-0.2-0.7-0.6-0.9-1c-0.1-0.7-0.2-1.3-0.2-2c0-0.7,0.1-1.3,0.2-2c0.2-0.4,0.5-0.8,0.9-1
	c0.5-0.2,1.1-0.3,1.7-0.3l1.5,0.2c0.3,0.1,0.6,0.3,0.8,0.6c0.1,0.5,0.2,0.9,0.2,1.4c0,0.5-0.1,0.9-0.5,1.2c-0.4,0.3-1,0.5-1.5,0.4
	h-1.9c0,0.3,0.1,0.7,0.2,1l0.5,0.5l1.1,0.2h1.9v0.8l-1.1,0.2h-1.2C497.3,142.7,496.7,142.6,496.2,142.4z M498.3,139h0.6
	c0.1-0.2,0.2-0.4,0.2-0.6c0-0.3-0.1-0.7-0.3-0.9l-0.9-0.2h-0.8c-0.2,0.1-0.4,0.3-0.4,0.6c-0.1,0.4-0.2,0.7-0.2,1.1L498.3,139z"/>
<path d="M501.7,136.2h1.2l0.3,1l0.9-0.8c0.3-0.2,0.7-0.3,1.1-0.3h0.5v1.5H505l-1,0.2l-0.8,0.6v4.2h-1.5V136.2z"/>
<path d="M507.7,142.6l-1.1-0.2v-0.8h2.8l0.7-0.2c0.1-0.1,0.2-0.3,0.2-0.5v-0.2c0-0.2-0.1-0.4-0.2-0.5l-0.7-0.2h-1
	c-1.3,0-1.9-0.6-1.9-1.7V138c0-0.5,0.1-1,0.5-1.4c0.6-0.4,1.3-0.5,2-0.5h1.2l1.1,0.2v0.8h-2.6l-0.7,0.2c-0.2,0.1-0.2,0.3-0.2,0.6
	v0.2c0,0.2,0,0.4,0.2,0.5h1.7c0.5,0,1,0.1,1.4,0.4c0.3,0.3,0.5,0.8,0.5,1.3v0.5c0,0.5-0.2,1-0.7,1.3c-0.5,0.3-1.2,0.5-1.8,0.4
	L507.7,142.6z"/>
<path d="M564.1,132h1.9l2.9,8.9h-1.6l-0.7-2.1h-3.2l-0.6,2.1h-1.6L564.1,132z M566.3,137.5l-1.3-4.2l-1.2,4.2H566.3z"/>
<path d="M570.1,140.2c-0.5-0.7-0.7-1.6-0.6-2.5c0-0.7,0.1-1.4,0.3-2c0.2-0.4,0.5-0.8,0.9-1c0.4-0.2,0.9-0.3,1.4-0.3l2.2,0.2v0.9
	h-1.7l-1,0.2c-0.2,0.1-0.4,0.3-0.5,0.6c-0.3,0.9-0.3,1.9,0,2.8c0.1,0.3,0.3,0.5,0.5,0.6h2.8v0.9l-1.1,0.2h-1.2
	C571.4,140.9,570.7,140.7,570.1,140.2z"/>
<path d="M576,140.2c-0.5-0.7-0.8-1.6-0.7-2.5c0-0.7,0.1-1.4,0.3-2c0.2-0.4,0.5-0.7,0.9-1c0.5-0.2,1-0.3,1.5-0.3l2.2,0.2v0.9h-1.7
	l-1,0.2c-0.2,0.1-0.4,0.3-0.5,0.6c-0.3,0.9-0.3,1.9,0,2.8c0.1,0.3,0.3,0.5,0.5,0.6h2.8v0.9l-1.1,0.2H578
	C577.3,140.9,576.6,140.7,576,140.2z"/>
<path d="M581.9,140.5c-0.3-0.4-0.5-1-0.5-1.5v-4.5h1.5v4.1c0,0.4,0.1,0.7,0.3,0.8s0.4,0.3,0.8,0.3c0.6,0,1.1-0.2,1.5-0.6v-4.6h1.5
	v6.4h-1.2l-0.3-0.7c-0.6,0.5-1.4,0.8-2.2,0.8C582.8,141,582.3,140.8,581.9,140.5z"/>
<path d="M588.5,134.5h1.2l0.3,0.6l1.1-0.5c0.4-0.2,0.8-0.2,1.2-0.2c0.3,0,0.6,0,0.9,0.2c0.3,0.2,0.5,0.4,0.7,0.7
	c0.3-0.3,0.7-0.5,1.1-0.7l1.3-0.2c1.3,0,2,0.7,2,2.3v4.2h-1.5v-4.1c0-0.3-0.1-0.6-0.3-0.8c-0.2-0.2-0.5-0.3-0.8-0.3l-0.8,0.2
	c-0.3,0.1-0.6,0.2-0.8,0.4c0,0.2,0.1,0.3,0.1,0.5v4.1h-1.5v-4.1c0.1-0.5-0.3-1-0.9-1.1c-0.1,0-0.1,0-0.2,0h-0.8l-0.8,0.4v4.7h-1.5
	L588.5,134.5z"/>
<path d="M600.2,140.5c-0.3-0.4-0.5-1-0.4-1.5v-4.5h1.4v4.1c0,0.4,0.1,0.7,0.3,0.8c0.2,0.2,0.5,0.3,0.8,0.3c0.6,0,1.2-0.2,1.6-0.6
	v-4.6h1.5v6.4h-1.2l-0.3-0.7c-0.7,0.5-1.5,0.8-2.3,0.8C601.1,141,600.6,140.8,600.2,140.5z"/>
<path d="M607.4,140.4c-0.4-0.3-0.5-0.8-0.5-1.6v-7.1h1.5v6.9c0,0.4,0,0.7,0.2,0.9l0.5,0.3h0.6v1.1h-0.9
	C608.1,140.9,607.7,140.8,607.4,140.4z"/>
<path d="M610.7,140.5c-0.3-0.3-0.4-0.7-0.4-1.1v-0.6c-0.1-0.5,0.1-0.9,0.5-1.2c0.4-0.4,1-0.5,1.5-0.5h1.9v-0.5
	c0-0.2-0.1-0.4-0.2-0.6c0-0.2-0.2-0.3-0.4-0.3h-2.9v-0.9c0.8-0.2,1.7-0.3,2.5-0.3c0.7-0.1,1.4,0.1,1.9,0.5c0.5,0.4,0.7,1,0.6,1.6
	v4.4h-1.2l-0.3-0.7c0,0.1-0.2,0.2-0.5,0.3l-0.8,0.3l-1,0.2C611.4,141.1,611,140.9,610.7,140.5z M613.5,139.8l0.7-0.3v-1.7h-1.4
	c-0.7,0.1-1.1,0.4-1.1,0.9v0.3c0,0.2,0.1,0.5,0.3,0.6c0.1,0.2,0.4,0.2,0.6,0.2H613.5z"/>
<path d="M617.9,140.4c-0.3-0.5-0.5-1.1-0.4-1.7v-3h-1v-1l1.1-0.2l0.2-1.8h1.2v1.8h1.6v1.2H619v3c0,0.4,0,0.6,0.2,0.8l0.5,0.2h0.8
	v1.1h-1C618.9,140.9,618.4,140.7,617.9,140.4z"/>
<path d="M622.7,140.7c-0.4-0.2-0.7-0.6-0.9-1c-0.2-0.6-0.3-1.3-0.3-2c0-0.7,0.1-1.4,0.3-2.1c0.2-0.4,0.5-0.7,0.9-0.9
	c1.1-0.4,2.3-0.4,3.4,0c0.4,0.2,0.7,0.6,0.9,1c0.2,0.6,0.3,1.3,0.3,2c0,0.7-0.1,1.4-0.3,2c-0.2,0.4-0.5,0.8-0.9,1
	C625,141.1,623.8,141.1,622.7,140.7z M625.2,139.6c0.2-0.1,0.4-0.3,0.5-0.6c0.1-0.4,0.1-0.9,0.1-1.3c0-0.5,0-0.9-0.1-1.4
	c-0.1-0.3-0.3-0.5-0.5-0.6h-1.6c-0.2,0.1-0.4,0.3-0.5,0.6c-0.1,0.5-0.1,0.9-0.1,1.4c0,0.4,0,0.9,0.1,1.3c0.1,0.3,0.3,0.5,0.5,0.6
	c0.2,0.1,0.5,0.2,0.8,0.2L625.2,139.6z"/>
<path d="M628.6,134.5h1.2l0.3,1l0.9-0.8c0.3-0.2,0.7-0.3,1.1-0.3h0.5v1.6h-0.7l-1,0.2c-0.3,0.1-0.6,0.3-0.8,0.6v4.2h-1.5V134.5z"/>
<path d="M565.3,252.8c-0.5-0.3-0.8-0.8-1-1.3c-0.2-0.9-0.3-1.9-0.3-2.9c0-0.9,0.1-1.8,0.3-2.7c0.2-0.6,0.6-1.1,1.1-1.4
	c0.6-0.2,1.2-0.3,1.8-0.3h1.4c0.4,0,0.9,0.1,1.3,0.3v1.1h-2.4l-1.2,0.2c-0.3,0.3-0.6,0.6-0.7,1c-0.1,0.7-0.2,1.3-0.2,2
	c0,0.7,0.1,1.3,0.2,2c0.1,0.4,0.3,0.7,0.6,0.9c0.4,0.2,0.9,0.3,1.3,0.2h2.4v1.2c-0.9,0.2-1.9,0.3-2.8,0.3
	C566.5,253.4,565.8,253.2,565.3,252.8z"/>
<path d="M572,252.9c-0.4-0.2-0.7-0.6-0.9-1c-0.2-0.6-0.3-1.3-0.3-2c0-0.7,0.1-1.4,0.3-2c0.2-0.4,0.5-0.8,0.9-1
	c1.1-0.4,2.3-0.4,3.4,0c0.4,0.2,0.7,0.6,0.9,1c0.2,0.6,0.3,1.3,0.3,2c0,0.7-0.1,1.4-0.3,2c-0.2,0.4-0.5,0.8-0.9,1
	C574.3,253.3,573.1,253.3,572,252.9z M574.5,251.8c0.2-0.1,0.4-0.3,0.5-0.6c0.1-0.4,0.1-0.9,0.1-1.3c0-0.5,0-0.9-0.1-1.4
	c-0.1-0.3-0.3-0.5-0.5-0.6h-1.6c-0.2,0.1-0.4,0.3-0.5,0.6c-0.1,0.5-0.1,0.9-0.1,1.4c0,0.4,0,0.9,0.1,1.3c0.1,0.3,0.3,0.5,0.5,0.6
	c0.2,0.1,0.5,0.2,0.8,0.2L574.5,251.8z"/>
<path d="M577.9,246.7h1.2l0.3,0.6l1-0.5c0.4-0.2,0.8-0.2,1.2-0.2c0.6,0,1.1,0.2,1.5,0.6c0.3,0.5,0.5,1,0.4,1.6v4.3h-1.4V249
	c0.1-0.5-0.3-1-0.9-1.1c-0.1,0-0.1,0-0.2,0h-0.8l-0.8,0.4v4.7h-1.5L577.9,246.7z"/>
<path d="M585.8,252.6c-0.3-0.5-0.5-1.1-0.4-1.7v-3h-1.1v-1l1.1-0.2l0.2-1.8h1.2v1.8h1.6v1.2h-1.6v3c0,0.4,0,0.6,0.2,0.8l0.5,0.2h0.8
	v1.1h-1C586.8,253,586.2,252.9,585.8,252.6z"/>
<path d="M589.6,246.7h1.2l0.3,1l0.9-0.8c0.3-0.2,0.7-0.3,1.1-0.3h0.5v1.5h-0.7l-1,0.2c-0.3,0.1-0.6,0.3-0.8,0.6v4.2h-1.5V246.7z"/>
<path d="M595.7,252.9c-0.4-0.2-0.8-0.6-1-1c-0.2-0.6-0.3-1.3-0.3-2c0-0.7,0.1-1.4,0.3-2c0.2-0.4,0.5-0.8,0.9-1
	c0.5-0.2,1.1-0.3,1.7-0.3c0.6,0,1.2,0.1,1.7,0.3c0.4,0.2,0.7,0.6,0.9,1c0.2,0.6,0.3,1.3,0.3,2c0,0.7-0.1,1.4-0.3,2
	c-0.2,0.4-0.5,0.8-0.9,1c-0.5,0.2-1.1,0.3-1.7,0.3C596.8,253.2,596.2,253.1,595.7,252.9z M598.2,251.8c0.2-0.2,0.3-0.4,0.4-0.6
	c0.1-0.4,0.1-0.9,0.1-1.3c0-0.5,0-0.9-0.1-1.4c-0.1-0.2-0.2-0.4-0.4-0.6h-1.7c-0.2,0.1-0.4,0.4-0.4,0.6c-0.1,0.5-0.2,0.9-0.2,1.4
	c0,0.4,0.1,0.9,0.2,1.3c0,0.2,0.2,0.5,0.4,0.6l0.8,0.2L598.2,251.8z"/>
<path d="M602,252.6c-0.4-0.4-0.6-1-0.5-1.6v-7h1.5v6.8c0,0.3,0.1,0.6,0.2,0.9c0.1,0.2,0.3,0.2,0.6,0.3h0.5v1h-0.8
	C603,253.1,602.4,253,602,252.6z"/>
<path d="M609.2,252.5c-0.7-0.5-1-1.4-0.9-2.2v-6h1.5v6c-0.1,0.5,0.1,0.9,0.5,1.2c0.9,0.4,1.9,0.4,2.8,0c0.3-0.3,0.5-0.7,0.5-1.2v-6
	h1.5v6c0.1,0.8-0.2,1.7-0.9,2.2C612.7,253.4,610.7,253.4,609.2,252.5L609.2,252.5z"/>
<path d="M616.5,246.7h1.3l0.2,0.6l1-0.5c0.4-0.2,0.8-0.2,1.2-0.2c0.6,0,1.1,0.2,1.5,0.6c0.3,0.5,0.5,1,0.5,1.6v4.3h-1.5V249
	c0.1-0.5-0.3-1-0.9-1.1c-0.1,0-0.1,0-0.2,0h-0.8l-0.8,0.4v4.7h-1.5L616.5,246.7z"/>
<path d="M623.7,245.6c-0.1,0-0.1-0.1-0.1-0.2v-1.1c0-0.1,0-0.1,0.1-0.1h1.4c0.1,0,0.1,0,0.1,0.1v1.1c0,0.2-0.1,0.3-0.2,0.3h-1.3
	V245.6z M623.7,246.7h1.4v6.4h-1.4V246.7z"/>
<path d="M627.5,252.6c-0.4-0.5-0.5-1.1-0.5-1.7v-3h-1v-1l1-0.2l0.3-1.8h1.1v1.8h1.7v1.2h-1.7v3c0,0.3,0.1,0.6,0.2,0.8l0.6,0.2h0.8
	v1.1h-1C628.5,253.1,627.9,252.9,627.5,252.6z"/>
<path d="M588.8,187.8h1.9l2.8,8.8H592l-0.7-2.1h-3.2l-0.7,2.1h-1.5L588.8,187.8z M590.9,193.2l-1.2-4.2l-1.2,4.2H590.9z"/>
<path d="M595.1,196.2c-0.3-0.5-0.5-1-0.5-1.6v-6.8h1.5v6.6c0,0.2,0.1,0.5,0.2,0.7l0.7,0.2h2.9v1.3h-3.3
	C596.1,196.6,595.5,196.5,595.1,196.2z"/>
<path d="M601.6,196c-0.7-0.5-1-1.4-0.9-2.2v-6h1.5v6c0,0.5,0.1,0.9,0.5,1.2c0.4,0.2,0.9,0.3,1.4,0.3c0.5,0,1-0.1,1.4-0.3
	c0.4-0.2,0.5-0.6,0.5-1.2v-6h1.5v6c0.1,0.8-0.2,1.7-0.9,2.2c-0.7,0.5-1.6,0.8-2.5,0.7C603.2,196.8,602.3,196.5,601.6,196z"/>
<rect x="558" y="146" class="st6" width="77.8" height="20"/>
<rect x="558" y="200.8" class="st6" width="77.8" height="20"/>
<rect x="558" y="257.3" class="st6" width="77.8" height="20"/>
<path d="M594.4,159.7c-0.4-0.5-0.6-1.1-0.6-1.7v-4.5c0-0.6,0.2-1.2,0.6-1.7c0.5-0.4,1.1-0.7,1.7-0.6h1.8c0.6,0,1.2,0.2,1.6,0.6
	c0.4,0.5,0.6,1.1,0.6,1.7v4.5c0,0.6-0.2,1.2-0.6,1.7c-0.5,0.3-1,0.5-1.6,0.5H596C595.4,160.2,594.9,160,594.4,159.7z M597.5,158.9
	c0.5,0.1,1-0.3,1.1-0.9c0-0.1,0-0.1,0-0.2v-4.1c0.1-0.5-0.3-1-0.9-1.1c-0.1,0-0.1,0-0.2,0h-1.2c-0.3,0-0.6,0.1-0.8,0.3
	c-0.2,0.1-0.2,0.4-0.2,0.8v4.1c0,0.3,0.1,0.6,0.2,0.8c0.2,0.2,0.6,0.3,0.9,0.3H597.5z"/>
<path d="M594.4,271.2c-0.4-0.4-0.6-1-0.6-1.6v-4.5c0-0.6,0.2-1.2,0.6-1.7c0.5-0.4,1.1-0.7,1.7-0.6h1.8c0.6,0,1.2,0.2,1.6,0.6
	c0.4,0.5,0.6,1.1,0.6,1.7v4.5c0,0.6-0.2,1.2-0.6,1.6c-0.4,0.4-1,0.6-1.6,0.6H596C595.4,271.8,594.8,271.6,594.4,271.2z M597.5,270.5
	c0.5,0.1,1-0.3,1.1-0.9c0-0.1,0-0.1,0-0.2v-4.1c0.1-0.5-0.3-1-0.9-1.1c-0.1,0-0.1,0-0.2,0h-1.2l-0.8,0.2c-0.2,0.2-0.2,0.5-0.2,0.9
	v4.1c0,0.3,0.1,0.6,0.2,0.8c0.2,0.2,0.6,0.3,0.9,0.3L597.5,270.5z"/>
<path d="M594.4,214c-0.4-0.4-0.6-1-0.6-1.6v-4.5c0-0.6,0.2-1.2,0.6-1.7c0.5-0.4,1.1-0.7,1.7-0.6h1.8c0.6,0,1.2,0.2,1.6,0.6
	c0.4,0.5,0.6,1.1,0.6,1.7v4.5c0.1,1.2-0.8,2.1-2,2.2c-0.1,0-0.1,0-0.2,0H596C595.4,214.6,594.8,214.4,594.4,214z M597.5,213.2
	c0.5,0.1,1-0.3,1.1-0.9c0-0.1,0-0.1,0-0.2V208c0.1-0.5-0.3-1-0.9-1.1c-0.1,0-0.1,0-0.2,0h-1.2c-0.3,0-0.6,0.1-0.8,0.3
	c-0.2,0.2-0.2,0.5-0.2,0.8v4.1c0,0.3,0.1,0.6,0.2,0.9l0.9,0.2H597.5z"/>
<rect x="446.2" y="156" class="st13" width="40.4" height="25"/>
<rect x="486.6" y="156" class="st6" width="40" height="25"/>
<rect x="446.4" y="185.5" class="st13" width="40.4" height="25"/>
<rect x="486.8" y="185.5" class="st6" width="40" height="25"/>
<rect x="446.2" y="215.2" class="st13" width="40.4" height="25"/>
<rect x="486.6" y="215.2" class="st6" width="40" height="25"/>
<rect x="446.2" y="244.9" class="st13" width="40.4" height="25"/>
<rect x="486.6" y="244.9" class="st6" width="40" height="25"/>
<path class="st6" d="M460.3,172.6V165h3.1c0.8-0.1,1.6,0.1,2.3,0.5c0.5,0.5,0.8,1.3,0.7,2c0.1,0.7-0.1,1.5-0.6,2
	c-0.6,0.4-1.4,0.6-2.1,0.5h-1.3v2.7L460.3,172.6z M462.4,168.4h0.9c0.4,0,0.7,0,0.8-0.2c0.3-0.5,0.3-1.1,0-1.6l-0.8-0.2h-0.9V168.4z
	"/>
<path class="st6" d="M472.8,170.9v1.5c-0.8,0.2-1.7,0.3-2.5,0.3c-1,0.1-1.9-0.2-2.6-0.9c-0.6-0.9-0.9-1.9-0.8-3
	c-0.1-1.1,0.2-2.2,0.8-3.1c0.5-0.6,1.3-0.8,2.6-0.8c0.8,0,1.6,0,2.4,0.2l-0.2,1.5h-2.2c-0.4,0-0.8,0.2-1,0.5
	c-0.2,0.6-0.2,1.1-0.2,1.7c0,0.6,0.1,1.1,0.2,1.7c0.2,0.3,0.6,0.5,1,0.4L472.8,170.9z"/>
<path d="M504.3,172.1c-0.4-0.4-0.6-0.9-0.6-1.5v-4.1c0-0.6,0.2-1.2,0.6-1.6c0.4-0.3,1-0.5,1.5-0.5h1.7c0.5,0,1.1,0.2,1.5,0.5
	c0.3,0.5,0.5,1,0.5,1.6v4.1c0,0.5-0.2,1.1-0.5,1.5c-0.4,0.3-1,0.5-1.5,0.5h-1.7C505.3,172.6,504.7,172.5,504.3,172.1z M507.1,171.4
	c0.7,0,1-0.3,1-1v-3.8c0-0.6-0.3-1-0.9-1h-1.1c-0.3,0-0.6,0.1-0.8,0.3c-0.1,0.2-0.2,0.5-0.2,0.7v3.8c0,0.2,0.1,0.5,0.2,0.7
	c0.2,0.2,0.5,0.3,0.8,0.3H507.1z"/>
<path class="st6" d="M461,194.6h1.9c0.3-0.1,0.6,0.2,0.7,0.5c0,0.1,0,0.1,0,0.2l0.3,6.8H462l-0.2-6h-0.2l-0.9,4.3
	c-0.1,0.4-0.4,0.6-0.8,0.6h-1.2c-0.4,0.1-0.7-0.2-0.8-0.6c0,0,0,0,0,0l-1-4.3h-0.1l-0.2,6h-1.9l0.2-6.8c0.1-0.5,0.3-0.7,0.8-0.7h1.8
	c0.5,0,0.8,0.2,0.8,0.6l0.8,3.4c0,0.2,0.1,0.6,0.1,1.1h0.1c0.1-0.2,0.1-0.3,0.1-0.5c0-0.2,0-0.4,0.1-0.6l0.7-3.4
	C460.3,194.8,460.6,194.5,461,194.6C461,194.6,461,194.6,461,194.6z"/>
<path class="st6" d="M469.3,200.3h-2.4l-0.4,1.8h-2.1l2-7l0.3-0.4h2.8c0.1,0.1,0.2,0.2,0.2,0.4l2.1,7h-2.1L469.3,200.3z
	 M468.9,198.8l-0.5-1.9c0-0.3-0.1-0.5-0.2-0.8h-0.3c0,0.3-0.1,0.5-0.1,0.8l-0.5,1.9H468.9z"/>
<path class="st6" d="M478.8,202.1h-2.2l-0.5-2.2c0-0.2-0.1-0.4-0.2-0.5h-1.4v2.8h-2.1v-7.5l3.1-0.2c0.8-0.1,1.6,0.1,2.3,0.5
	c0.5,0.5,0.8,1.1,0.7,1.8c0,1.1-0.5,1.8-1.5,1.9l0,0c0.7,0.1,1,0.5,1.2,1.2L478.8,202.1z M474.5,197.8h0.9c0.3,0,0.6,0,0.8-0.2
	c0.2-0.1,0.2-0.4,0.2-0.7s0-0.6-0.2-0.8h-1.7L474.5,197.8z"/>
<path d="M504.4,201.7c-0.3-0.5-0.5-1-0.5-1.6v-4c0-0.6,0.2-1.2,0.6-1.6c0.4-0.4,0.9-0.6,1.5-0.5h1.7c0.5,0,1.1,0.1,1.5,0.5
	c0.3,0.5,0.5,1,0.5,1.6v4c0,0.6-0.2,1.2-0.6,1.6c-0.4,0.4-1,0.5-1.5,0.5H506C505.4,202.2,504.9,202,504.4,201.7z M507.3,201
	c0.7,0,1-0.4,1-1.1v-3.7c0-0.7-0.3-1-1-1h-1c-0.3,0-0.6,0.1-0.8,0.2c-0.2,0.2-0.2,0.5-0.2,0.8v3.7c0,0.4,0,0.6,0.2,0.8
	c0.2,0.2,0.5,0.3,0.8,0.3H507.3z"/>
<path class="st6" d="M457.5,219.1h1.9c0.4-0.1,0.7,0.2,0.8,0.6c0,0.1,0,0.1,0,0.2l0.3,6.8h-1.9l-0.3-6h-0.2l-0.9,4.3
	c-0.1,0.4-0.4,0.7-0.8,0.6c0,0,0,0,0,0h-1.1c-0.4,0.1-0.8-0.2-0.9-0.6l-0.9-4.3h-0.2l-0.2,6h-1.9l0.3-6.8c-0.1-0.4,0.2-0.7,0.6-0.8
	c0,0,0.1,0,0.1,0h1.9c0.4,0,0.7,0.3,0.8,0.7l0.7,3.4c0.1,0.4,0.2,0.7,0.2,1.1h0.1c0-0.2,0-0.3,0.1-0.5c0-0.3,0-0.5,0.1-0.6l0.6-3.4
	C456.8,219.4,457.1,219.1,457.5,219.1z"/>
<path class="st6" d="M461.6,226.7v-7.6h3.1c1-0.1,2,0.2,2.7,0.9c0.5,0.5,0.7,1.5,0.7,3s-0.2,2.6-0.7,3.1s-1.4,0.8-2.7,0.8
	L461.6,226.7z M463.7,220.6v4.7h1c0.4,0,0.8-0.2,1-0.5c0.3-0.6,0.4-1.3,0.3-1.9c0.1-0.6,0-1.2-0.3-1.8c-0.2-0.4-0.5-0.5-1-0.5H463.7
	z"/>
<path class="st6" d="M475.6,226.7h-2.1l-0.6-2.3c0-0.2-0.1-0.3-0.2-0.4h-1.4v2.8h-2.1v-7.6h3.1c0.8-0.1,1.6,0.1,2.3,0.5
	c0.5,0.5,0.8,1.1,0.7,1.8c0,1.1-0.5,1.8-1.5,1.9l0,0c0.6,0,1.2,0.6,1.2,1.2L475.6,226.7z M471.3,222.4h1l0.7-0.2
	c0.2-0.1,0.2-0.4,0.2-0.7s0-0.6-0.2-0.8l-0.7-0.2h-1V222.4z"/>
<path class="st6" d="M477.6,227.6H476l4.4-8.5h1.5L477.6,227.6z"/>
<path class="st6" d="M460.9,230.1h1.9c0.5,0,0.7,0.3,0.7,0.8l0.3,6.8h-1.9l-0.2-6h-0.2l-0.9,4.3c-0.1,0.4-0.4,0.6-0.8,0.6h-1.2
	c-0.4,0-0.7-0.2-0.8-0.6l-0.9-4.3h-0.2l-0.2,6h-1.9l0.3-6.8c0-0.5,0.2-0.8,0.7-0.8h1.9c0.4,0,0.7,0.3,0.8,0.7l0.7,3.4
	c0,0.2,0.1,0.6,0.1,1.1h0.2v-0.5c0.1-0.2,0.1-0.4,0.1-0.6l0.7-3.4C460.2,230.4,460.5,230.1,460.9,230.1z"/>
<path class="st6" d="M469.5,233.8L469.5,233.8c0.5,0,0.9,0.2,1.2,0.6c0.3,0.4,0.4,0.9,0.4,1.4c0.1,0.6-0.1,1.2-0.6,1.6
	c-0.6,0.3-1.4,0.5-2.1,0.4H465v-7.6h3.1c0.8-0.1,1.5,0.1,2.2,0.4c0.5,0.4,0.7,0.9,0.6,1.5c0.1,0.5-0.1,0.9-0.4,1.3
	C470.3,233.6,470,233.7,469.5,233.8z M467,233.2h1c0.4,0.1,0.8,0,0.9-0.4c0.1-0.2,0.1-0.3,0-0.5c0-0.2-0.1-0.4-0.2-0.6l-0.7-0.2h-1
	L467,233.2z M467,236.4h1.1l0.8-0.2c0.1-0.1,0.1-0.4,0.1-0.8s0-0.6-0.2-0.8c-0.2-0.2-0.4-0.2-0.7-0.2H467V236.4z"/>
<path class="st6" d="M478.5,237.7h-2.1l-0.6-2.3c0-0.2-0.1-0.3-0.2-0.4h-1.4v2.8h-2.1v-7.6h3.1c0.8-0.1,1.6,0.1,2.3,0.5
	c0.5,0.5,0.8,1.1,0.7,1.8c0,1.1-0.5,1.8-1.5,1.9l0,0c0.6,0,1.2,0.6,1.2,1.2L478.5,237.7z M474.2,233.4h1c0.3,0,0.6-0.1,0.8-0.2
	c0.1-0.2,0.2-0.5,0.2-0.7c0-0.3-0.1-0.6-0.2-0.8l-0.8-0.2h-1V233.4z"/>
<path d="M504.3,231.4c-0.4-0.4-0.6-1-0.6-1.6v-4.1c0-1.2,0.9-2.1,2.1-2.1l0,0h1.7c0.6,0,1.1,0.2,1.5,0.6c0.3,0.4,0.5,1,0.5,1.5v4.1
	c0,0.6-0.2,1.1-0.5,1.6c-0.4,0.3-1,0.5-1.5,0.5h-1.7C505.3,231.9,504.7,231.8,504.3,231.4z M507.1,230.6c0.7,0,1-0.3,1-1v-3.7
	c0-0.7-0.3-1-0.9-1h-1.1l-0.8,0.2c-0.1,0.2-0.2,0.5-0.2,0.8v3.7c0,0.3,0.1,0.6,0.2,0.8c0.2,0.2,0.5,0.2,0.8,0.2H507.1z"/>
<path class="st6" d="M464,259.8v1.5c-0.8,0.2-1.7,0.3-2.5,0.3c-1.3,0-2.1-0.2-2.6-0.8c-0.6-0.9-0.9-2-0.8-3.1
	c-0.1-1.1,0.2-2.1,0.8-3c0.7-0.7,1.6-1,2.6-0.9c0.8,0,1.6,0.1,2.4,0.3l-0.2,1.5h-2.2c-0.4-0.1-0.8,0.1-1,0.4
	c-0.1,0.6-0.2,1.1-0.2,1.7c0,0.6,0,1.1,0.2,1.7c0.2,0.3,0.6,0.5,1,0.5L464,259.8z"/>
<path class="st6" d="M467.1,261.5H465v-7.6h2.1V261.5z"/>
<path class="st6" d="M474.8,261.5h-2.2l-0.5-2.3c-0.1-0.2-0.1-0.3-0.2-0.4h-1.5v2.8h-2V254h3.1c0.8-0.1,1.6,0.1,2.3,0.5
	c0.5,0.3,0.7,0.9,0.7,1.8c0.1,0.9-0.5,1.7-1.4,1.8c0,0-0.1,0-0.1,0l0,0c0.6,0.1,1.1,0.6,1.2,1.2L474.8,261.5z M470.4,257.1h1.8
	c0.2-0.2,0.2-0.4,0.2-0.8s0-0.6-0.2-0.7l-0.8-0.2h-1V257.1z"/>
<path d="M504.3,261c-0.4-0.4-0.6-0.9-0.6-1.5v-4.1c0-0.6,0.2-1.1,0.6-1.5c0.4-0.4,0.9-0.6,1.5-0.6h1.7c0.6,0,1.1,0.2,1.5,0.6
	c0.3,0.4,0.5,1,0.5,1.5v4.1c0,0.5-0.1,1.1-0.5,1.5c-0.4,0.4-0.9,0.6-1.5,0.6h-1.7C505.2,261.6,504.7,261.4,504.3,261z M507.1,260.3
	c0.7,0,1-0.3,1-1v-3.7c0-0.7-0.3-1-0.9-1h-1.1c-0.3,0-0.6,0-0.8,0.2c-0.1,0.2-0.2,0.5-0.2,0.8v3.7c0,0.3,0.1,0.6,0.2,0.8l0.8,0.2
	H507.1z"/>
<path class="st11" d="M159,304.6h212.2c6.5,0,11.8,5.3,11.8,11.8v184.9c0,6.5-5.3,11.8-11.8,11.8H159c-6.5,0-11.8-5.3-11.8-11.8
	V316.4C147.2,309.9,152.5,304.6,159,304.6z"/>
<path class="st12" d="M160.7,314.6h208.8c1.9,0,3.5,1.6,3.5,3.5v13.2c0,1.9-1.6,3.5-3.5,3.5H160.7c-1.9,0-3.5-1.6-3.5-3.5v-13.2
	C157.2,316.2,158.8,314.6,160.7,314.6z"/>
<path class="st12" d="M160.4,341h105.8c1.8,0,3.2,1.4,3.2,3.2V500c0,1.8-1.4,3.2-3.2,3.2H160.4c-1.8,0-3.2-1.4-3.2-3.2V344.2
	C157.2,342.4,158.6,341,160.4,341z"/>
<path class="st12" d="M278.1,341h92c1.6,0,2.9,1.3,2.9,2.9v44.2c0,1.6-1.3,2.9-2.9,2.9h-92c-1.6,0-2.9-1.3-2.9-2.9v-44.2
	C275.2,342.3,276.5,341,278.1,341z"/>
<path class="st12" d="M279,453.1h90.2c2.1,0,3.8,1.7,3.8,3.8v42.4c0,2.1-1.7,3.8-3.8,3.8H279c-2.1,0-3.8-1.7-3.8-3.8v-42.4
	C275.2,454.8,276.9,453.1,279,453.1z"/>
<path class="st12" d="M278.5,397.1h91.2c1.8,0,3.3,1.5,3.3,3.3v43.4c0,1.8-1.5,3.3-3.3,3.3h-91.2c-1.8,0-3.3-1.5-3.3-3.3v-43.4
	C275.2,398.6,276.7,397.1,278.5,397.1z"/>
<path d="M251.2,328.1l0.2,1.7c-1.1,0.3-2.2,0.4-3.3,0.4c-1.6,0-2.7-0.4-3.3-1.2c-0.7-0.8-1-2.2-1-4.2s0.3-3.3,1-4.1s1.7-1.2,3.3-1.2
	c1,0,2.1,0.1,3.1,0.3l-0.2,1.7h-2.9c-0.6,0-1.2,0.3-1.5,0.8c-0.4,0.8-0.5,1.7-0.4,2.6c-0.1,0.9,0.1,1.8,0.4,2.7
	c0.3,0.5,0.9,0.8,1.5,0.7L251.2,328.1z"/>
<path d="M256.3,322.4c1-0.1,2.1,0.2,2.9,0.9c1.2,1.8,1.2,4.2,0,6c-0.8,0.7-1.9,1-2.9,0.9c-2.2,0-3.9-1.7-3.9-3.9
	C252.4,324.2,254.1,322.4,256.3,322.4C256.3,322.4,256.3,322.4,256.3,322.4z M256.3,324.1c-0.6,0-1,0.1-1.2,0.4
	c-0.4,1.2-0.4,2.4,0,3.6c0.2,0.3,0.6,0.4,1.2,0.4c0.4,0.1,0.8-0.1,1.1-0.4c0.4-1.2,0.4-2.4,0-3.6
	C257.2,324.2,256.9,324.1,256.3,324.1z"/>
<path d="M266.9,322.4l-0.2,2h-0.6c-0.8,0.1-1.6,0.3-2.3,0.6v5h-2.2v-7.4h1.7l0.2,1.1c0.8-0.8,1.9-1.3,3-1.3L266.9,322.4z"/>
<path d="M272.6,327h-2.7c0.1,0.6,0.2,0.9,0.5,1.1c0.4,0.2,0.8,0.3,1.2,0.3c0.9,0,1.9,0,2.8-0.2l0.2,1.4c-1,0.4-2.1,0.7-3.2,0.6
	c-1.8,0.4-3.5-0.8-3.9-2.6c-0.1-0.4-0.1-0.9,0-1.3c-0.1-1.1,0.2-2.2,0.9-3c0.8-0.7,1.9-1,2.9-0.9c0.9-0.1,1.9,0.1,2.7,0.6
	c0.5,0.5,0.8,1.2,0.8,2c0,0.5-0.1,1.1-0.5,1.5C273.8,326.9,273.2,327.1,272.6,327z M269.8,325.7h2.1l0.6-0.2
	c0.1-0.1,0.1-0.3,0.1-0.6c0-0.2-0.1-0.5-0.2-0.7c-0.3-0.1-0.7-0.2-1-0.2c-0.6,0-1,0.1-1.2,0.4C269.9,324.8,269.8,325.2,269.8,325.7
	L269.8,325.7z"/>
<path d="M279.5,321.4v-1.7c1.1-0.2,2.2-0.2,3.3-0.2c0.9-0.1,1.8,0.1,2.6,0.5c0.5,0.5,0.8,1.2,0.7,1.9c0,0.6-0.1,1.2-0.3,1.8
	c-0.3,0.4-0.7,0.7-1.2,0.8l0,0c0.6,0.1,1.1,0.4,1.4,0.8c0.3,0.6,0.4,1.2,0.4,1.8c0.1,0.9-0.2,1.8-0.8,2.4c-0.8,0.6-1.7,0.8-2.7,0.7
	l-3.6-0.3v-1.7h2.8c0.5,0.1,1,0,1.5-0.3c0.4-0.3,0.5-0.7,0.5-1.2c0-0.4-0.1-0.8-0.4-1.1c-0.3-0.2-0.8-0.4-1.2-0.3h-2v-1.6h2
	c0.4,0.1,0.8,0,1.1-0.3c0.2-0.3,0.3-0.6,0.3-1c0-0.4-0.1-0.7-0.3-1l-1.3-0.2L279.5,321.4z"/>
<path d="M188.2,350.4h3.6c0.7,0,1.3,0.2,1.8,0.6c0.5,0.6,0.7,1.4,0.6,2.2c0.1,0.6-0.1,1.2-0.4,1.7c-0.3,0.4-0.7,0.7-1.1,0.8l1.7,3.6
	h-1.5l-1.5-3.4h-1.8v3.4h-1.4L188.2,350.4z M191.5,354.7c0.3,0,0.7-0.1,0.9-0.3c0.2-0.3,0.4-0.8,0.3-1.2c0-0.4-0.1-0.8-0.3-1.1
	c-0.2-0.2-0.6-0.3-0.9-0.3h-1.9v2.9H191.5z"/>
<path d="M196.4,359.1c-0.4-0.2-0.7-0.6-0.9-1c-0.2-0.6-0.3-1.3-0.3-2c0-0.7,0.1-1.4,0.3-2c0.1-0.4,0.4-0.8,0.8-1
	c0.5-0.2,1.1-0.3,1.7-0.3l1.5,0.2c0.3,0.1,0.6,0.3,0.8,0.6c0.2,0.4,0.3,0.9,0.3,1.4c0.1,0.5-0.2,1-0.6,1.2c-0.4,0.3-0.9,0.4-1.4,0.4
	h-1.9c0,0.3,0.1,0.7,0.2,1c0,0.2,0.2,0.4,0.5,0.5h3v0.9l-1.2,0.2H198C197.5,359.3,196.9,359.3,196.4,359.1z M198.4,355.7h0.6
	c0.2-0.2,0.2-0.3,0.2-0.6c0-0.3-0.1-0.6-0.2-0.9c-0.2-0.2-0.5-0.2-1-0.2h-0.8c-0.2,0.1-0.4,0.4-0.4,0.6c-0.1,0.4-0.1,0.7-0.1,1.1
	H198.4z"/>
<path d="M207.8,353.7h-1.1c0.2,0.2,0.3,0.4,0.4,0.6c0.1,0.3,0.2,0.6,0.2,0.9c0,0.5-0.2,1.1-0.6,1.4c-0.4,0.4-1.1,0.7-1.7,0.6h-1.1
	c-0.6,0-0.9,0.1-0.9,0.5l0.2,0.3h2.3c0.6,0,1.2,0.1,1.7,0.5c0.4,0.3,0.6,0.9,0.6,1.4v0.2c0,0.6-0.2,1.1-0.6,1.5
	c-0.5,0.4-1.2,0.5-1.8,0.5h-1.9c-0.5,0-1-0.1-1.5-0.4c-0.4-0.3-0.6-0.7-0.6-1.2v-0.2c0-0.3,0.1-0.6,0.3-0.9c0.2-0.2,0.4-0.4,0.7-0.5
	l-0.5-0.5c-0.1-0.2-0.1-0.4-0.1-0.6c0-0.3,0.1-0.6,0.3-0.8c0.1-0.2,0.4-0.3,0.7-0.4c-0.3-0.2-0.6-0.5-0.8-0.8
	c-0.1-0.3-0.2-0.7-0.2-1c-0.1-0.6,0.1-1.2,0.6-1.6c0.6-0.4,1.3-0.6,2-0.5h3.4L207.8,353.7z M203.9,359.3c-0.3,0-0.6,0.1-0.8,0.3
	c-0.2,0.1-0.3,0.4-0.3,0.6v0.2c0,0.2,0.1,0.5,0.3,0.6l0.8,0.2h1.3l0.9-0.2c0.2-0.1,0.3-0.4,0.3-0.6v-0.2c0-0.6-0.4-0.9-1.1-0.9
	H203.9z M205.7,355.9c0.2-0.2,0.2-0.5,0.2-0.8c0-0.4,0-0.7-0.2-0.9l-0.8-0.2h-0.7l-0.8,0.2c-0.2,0.2-0.3,0.5-0.3,0.8
	c0,0.3,0.1,0.7,0.3,0.9l0.7,0.2h0.7L205.7,355.9z"/>
<path d="M208.9,351.8c-0.1,0-0.1-0.1-0.1-0.2v-1.1c0-0.1,0-0.1,0.1-0.1h0h1.4c0.1,0,0.1,0,0.1,0.1l0,0v1.1c0,0.2-0.1,0.3-0.2,0.3
	L208.9,351.8L208.9,351.8z M208.8,352.9h1.5v6.4h-1.5V352.9z"/>
<path d="M212.8,359.3l-1.1-0.2v-0.9h3.5c0.1-0.1,0.2-0.3,0.2-0.5v-0.3c0-0.2-0.1-0.3-0.2-0.4l-0.7-0.2h-1c-1.3,0-1.9-0.6-1.9-1.7
	v-0.4c0-0.5,0.2-1,0.5-1.3c0.6-0.4,1.2-0.5,1.9-0.5h1.3l1.1,0.2v0.8h-2.6c-0.3,0-0.5,0-0.7,0.2c-0.2,0.1-0.3,0.3-0.3,0.5v0.3
	c0,0.2,0.1,0.4,0.3,0.5h1.7c0.5,0,1,0.1,1.4,0.4c0.3,0.4,0.5,0.8,0.4,1.3v0.5c0,0.5-0.2,1-0.6,1.3c-0.5,0.3-1.2,0.5-1.8,0.4
	L212.8,359.3z"/>
<path d="M218.7,358.8c-0.4-0.5-0.5-1.1-0.4-1.7v-3h-1v-1l1.1-0.2l0.2-1.8h1.1v1.8h1.7v1.2h-1.7v3c0,0.3,0.1,0.6,0.2,0.8l0.6,0.2h0.8
	v1.1h-1.1C219.7,359.3,219.1,359.1,218.7,358.8z"/>
<path d="M223.4,359.1c-0.4-0.2-0.7-0.6-0.9-1c-0.1-0.7-0.2-1.3-0.2-2c0-0.7,0.1-1.3,0.2-2c0.2-0.4,0.5-0.8,0.9-1
	c0.5-0.2,1.1-0.3,1.6-0.3l1.5,0.2c0.4,0.1,0.7,0.3,0.9,0.6c0.1,0.5,0.2,0.9,0.2,1.4c0,0.5-0.1,0.9-0.5,1.2c-0.4,0.3-1,0.5-1.5,0.4
	h-1.9c0,0.3,0.1,0.7,0.2,1c0.1,0.2,0.3,0.4,0.5,0.5h3v0.9l-1.1,0.2h-1.2C224.5,359.3,224,359.3,223.4,359.1z M225.5,355.7h0.6
	c0.1-0.2,0.2-0.4,0.2-0.6c0-0.3-0.1-0.7-0.3-0.9c-0.2-0.2-0.5-0.2-1-0.2h-0.7c-0.2,0.1-0.4,0.3-0.5,0.6c0,0.3-0.1,0.6-0.1,1.1H225.5
	z"/>
<path d="M228.9,352.9h1.2l0.3,1l0.9-0.8c0.3-0.2,0.7-0.3,1.1-0.3h0.5v1.5h-0.7l-1,0.2c-0.3,0.1-0.6,0.3-0.8,0.6v4.2h-1.5V352.9z"/>
<path d="M234.9,359.3l-1.1-0.2v-0.9h3.5c0.1-0.1,0.2-0.3,0.2-0.5v-0.3c0-0.2-0.1-0.3-0.2-0.4l-0.7-0.2h-1c-1.3,0-1.9-0.6-1.9-1.7
	v-0.4c0-0.5,0.2-1,0.5-1.3c0.6-0.4,1.2-0.5,1.9-0.5h1.3l1.1,0.2v0.8h-2.6c-0.3,0-0.5,0-0.7,0.2c-0.2,0.1-0.3,0.3-0.3,0.5v0.3
	c0,0.2,0.1,0.4,0.3,0.5h1.7c0.5,0,1,0.1,1.4,0.4c0.3,0.3,0.5,0.8,0.5,1.3v0.5c0,0.5-0.3,1-0.7,1.3c-0.5,0.3-1.2,0.5-1.8,0.4
	L234.9,359.3z"/>
<path d="M291.3,348.7h1.9l2.9,8.9h-1.6l-0.7-2.1h-3.2l-0.6,2.1h-1.6L291.3,348.7z M293.5,354.2l-1.3-4.2l-1.2,4.2H293.5z"/>
<path d="M297.3,356.9c-0.5-0.7-0.8-1.6-0.7-2.5c0-0.7,0.1-1.4,0.4-2c0.2-0.4,0.5-0.8,0.9-1c0.4-0.2,0.9-0.3,1.4-0.3l2.2,0.2v0.9
	h-1.7l-1,0.2c-0.2,0.1-0.4,0.3-0.5,0.6c-0.1,0.5-0.2,0.9-0.2,1.4c0,0.4,0.1,0.9,0.2,1.3c0.1,0.3,0.2,0.6,0.5,0.7h2.8v0.9l-1.1,0.2
	h-1.2C298.6,357.6,297.9,357.4,297.3,356.9z"/>
<path d="M303.2,356.9c-0.5-0.7-0.8-1.6-0.7-2.5c0-0.7,0.1-1.4,0.3-2c0.2-0.4,0.5-0.8,0.9-1c0.5-0.2,1-0.3,1.5-0.3l2.2,0.2v0.9h-1.7
	l-1,0.2c-0.2,0.1-0.4,0.3-0.5,0.6c-0.1,0.5-0.2,0.9-0.2,1.4c0,0.4,0.1,0.9,0.2,1.3c0.1,0.3,0.2,0.6,0.5,0.7h2.8v0.9l-1.1,0.2h-1.2
	C304.5,357.6,303.8,357.4,303.2,356.9z"/>
<path d="M309.1,357.2c-0.4-0.4-0.6-0.9-0.5-1.5v-4.5h1.5v4.1c0,0.3,0,0.6,0.2,0.8c0.2,0.2,0.6,0.3,0.9,0.3c0.6,0,1.1-0.2,1.5-0.6
	v-4.6h1.5v6.4H313l-0.3-0.7c-0.6,0.5-1.4,0.8-2.2,0.8C310,357.7,309.5,357.5,309.1,357.2z"/>
<path d="M315.7,351.2h1.2l0.3,0.6l1-0.5c0.4-0.2,0.8-0.2,1.2-0.2c0.3-0.1,0.7,0,1,0.2c0.3,0.2,0.5,0.4,0.7,0.7
	c0.3-0.3,0.7-0.5,1.1-0.7l1.3-0.2c1.3,0,2,0.7,2,2.3v4.2H324v-4.1c0-0.3-0.1-0.6-0.3-0.8c-0.2-0.2-0.5-0.3-0.8-0.3l-0.8,0.2
	c-0.3,0.1-0.6,0.2-0.8,0.4v4.6h-1.4v-4.1c0.1-0.5-0.3-1-0.9-1.1c-0.1,0-0.1,0-0.2,0H318l-0.8,0.4v4.7h-1.5V351.2z"/>
<path d="M327.4,357.2c-0.3-0.4-0.5-1-0.5-1.5v-4.5h1.5v4.1c0,0.4,0.1,0.7,0.3,0.8c0.2,0.2,0.5,0.3,0.8,0.3c0.6,0,1.2-0.2,1.6-0.6
	v-4.6h1.5v6.4h-1.2l-0.3-0.7c-0.7,0.5-1.5,0.8-2.3,0.8C328.3,357.7,327.8,357.5,327.4,357.2z"/>
<path d="M334.5,357.1c-0.3-0.5-0.5-1-0.4-1.6v-7.1h1.5v6.9c0,0.3,0,0.6,0.1,0.9l0.6,0.3h0.6v1.1H336
	C335.4,357.7,334.9,357.5,334.5,357.1z"/>
<path d="M337.9,357.2c-0.3-0.3-0.5-0.7-0.5-1.1v-0.6c0-0.5,0.2-0.9,0.6-1.2c0.4-0.4,1-0.5,1.5-0.5h1.9v-0.5c0-0.2-0.1-0.4-0.2-0.6
	c0-0.2-0.2-0.3-0.4-0.3h-2.9v-0.9c0.8-0.2,1.7-0.3,2.5-0.3c0.7-0.1,1.4,0.1,1.9,0.5c0.4,0.4,0.6,1,0.5,1.6v4.4h-1.1l-0.3-0.7
	c0,0.1-0.2,0.2-0.5,0.3l-0.8,0.3l-1,0.2C338.6,357.8,338.2,357.6,337.9,357.2z M340.7,356.5l0.7-0.3v-1.7H340
	c-0.7,0.1-1.1,0.4-1.1,0.9v0.3c0,0.2,0.1,0.5,0.3,0.6c0.1,0.2,0.3,0.2,0.6,0.2H340.7z"/>
<path d="M345.1,357.1c-0.3-0.5-0.5-1.1-0.4-1.7v-3h-1v-1l1.1-0.2l0.2-1.8h1.2v1.8h1.6v1.2h-1.6v3c0,0.4,0,0.6,0.2,0.8l0.5,0.2h0.8
	v1.1h-1C346.1,357.6,345.6,357.4,345.1,357.1z"/>
<path d="M349.9,357.4c-0.4-0.2-0.7-0.6-0.9-1c-0.2-0.6-0.3-1.3-0.3-2c0-0.7,0.1-1.4,0.3-2.1c0.2-0.4,0.5-0.7,0.9-0.9
	c1.1-0.4,2.3-0.4,3.4,0c0.4,0.2,0.7,0.6,0.9,1c0.2,0.6,0.3,1.3,0.3,2c0,0.7-0.1,1.4-0.3,2c-0.2,0.4-0.5,0.8-0.9,1
	C352.2,357.8,351,357.8,349.9,357.4z M352.4,356.3c0.2-0.1,0.4-0.3,0.5-0.6c0-0.3,0.1-0.7,0.1-1.3s-0.1-1.1-0.1-1.4
	c-0.1-0.3-0.3-0.5-0.5-0.6h-1.6c-0.2,0.1-0.4,0.3-0.5,0.6c-0.1,0.5-0.1,0.9-0.1,1.4c0,0.4,0,0.9,0.1,1.3c0.1,0.3,0.3,0.5,0.5,0.6
	c0.2,0.1,0.5,0.2,0.8,0.2L352.4,356.3z"/>
<path d="M355.8,351.2h1.2l0.3,1l0.9-0.8c0.3-0.2,0.7-0.3,1.1-0.3h0.5v1.5h-0.7l-1,0.2c-0.3,0.1-0.6,0.3-0.8,0.6v4.2h-1.5V351.2z"/>
<path d="M292.5,469.5c-0.5-0.3-0.8-0.8-1-1.3c-0.2-0.9-0.3-1.9-0.3-2.9c0-0.9,0.1-1.8,0.3-2.7c0.2-0.6,0.6-1.1,1.1-1.4
	c0.6-0.2,1.2-0.3,1.8-0.3h1.4c0.4,0,0.9,0.1,1.3,0.3v1.1h-2.4l-1.3,0.2c-0.3,0.3-0.5,0.6-0.6,1c-0.1,0.7-0.2,1.3-0.2,2
	c0,0.7,0.1,1.3,0.2,2c0.1,0.4,0.3,0.7,0.6,0.9c0.4,0.2,0.9,0.3,1.3,0.2h2.4v1.2c-0.9,0.2-1.9,0.3-2.8,0.3
	C293.7,470.1,293,469.9,292.5,469.5z"/>
<path d="M299.2,469.6c-0.4-0.2-0.7-0.6-0.9-1c-0.2-0.6-0.3-1.3-0.3-2c0-0.7,0.1-1.4,0.3-2c0.2-0.4,0.5-0.8,0.9-1
	c1.1-0.4,2.3-0.4,3.4,0c0.4,0.2,0.7,0.6,0.9,1c0.2,0.6,0.3,1.3,0.3,2c0,0.7-0.1,1.4-0.3,2c-0.2,0.4-0.5,0.8-0.9,1
	C301.5,470,300.3,470,299.2,469.6z M301.7,468.5c0.2-0.1,0.4-0.3,0.5-0.6c0-0.3,0.1-0.7,0.1-1.3s-0.1-1.1-0.1-1.4
	c-0.1-0.3-0.3-0.5-0.5-0.6h-1.6c-0.2,0.1-0.4,0.3-0.5,0.6c-0.1,0.5-0.1,0.9-0.1,1.4c0,0.4,0,0.9,0.1,1.3c0.1,0.3,0.3,0.5,0.5,0.6
	l0.8,0.2L301.7,468.5z"/>
<path d="M305.1,463.4h1.2l0.3,0.6c0.3-0.2,0.6-0.4,1-0.5c0.3-0.2,0.7-0.2,1.1-0.2c0.6,0,1.2,0.2,1.6,0.6c0.3,0.5,0.5,1,0.4,1.6v4.3
	h-1.5v-4.1c0-0.3,0-0.6-0.2-0.8c-0.2-0.2-0.5-0.3-0.8-0.3h-0.8l-0.8,0.4v4.7h-1.5L305.1,463.4z"/>
<path d="M313,469.3c-0.3-0.5-0.5-1.1-0.4-1.7v-3h-1v-1l1.1-0.2l0.2-1.8h1.2v1.8h1.6v1.2h-1.6v3c0,0.4,0,0.6,0.2,0.8l0.5,0.2h0.8v1.1
	h-1C314,469.8,313.5,469.6,313,469.3z"/>
<path d="M316.8,463.4h1.1l0.4,1l0.9-0.8c0.3-0.2,0.6-0.3,1-0.3h0.6v1.5h-0.7l-1,0.2c-0.3,0.1-0.6,0.3-0.8,0.6v4.2h-1.5V463.4z"/>
<path d="M322.8,469.6c-0.4-0.2-0.7-0.6-0.9-1c-0.2-0.6-0.3-1.3-0.3-2c0-0.7,0.1-1.4,0.3-2c0.2-0.4,0.5-0.8,0.9-1
	c1.1-0.4,2.3-0.4,3.4,0c0.4,0.2,0.7,0.6,0.9,1c0.2,0.6,0.3,1.3,0.3,2c0,0.7-0.1,1.4-0.3,2c-0.2,0.4-0.5,0.8-0.9,1
	c-0.5,0.2-1.1,0.3-1.7,0.3C323.9,469.9,323.3,469.8,322.8,469.6z M325.3,468.5c0.2-0.1,0.4-0.3,0.5-0.6c0.1-0.4,0.1-0.9,0.1-1.3
	c0-0.5,0-0.9-0.1-1.4c-0.1-0.3-0.3-0.5-0.5-0.6h-1.6c-0.2,0.1-0.4,0.3-0.5,0.6c0,0.3-0.1,0.8-0.1,1.4s0.1,1,0.1,1.3
	c0.1,0.3,0.3,0.5,0.5,0.6l0.8,0.2L325.3,468.5z"/>
<path d="M329.2,469.3c-0.4-0.4-0.6-1-0.5-1.6v-7h1.5v6.8c0,0.3,0.1,0.6,0.2,0.9l0.6,0.3h0.5v1h-0.9
	C330.1,469.8,329.6,469.7,329.2,469.3z"/>
<path d="M336.4,469.2c-0.7-0.5-1-1.4-0.9-2.2v-6h1.5v6c-0.1,0.5,0.1,0.9,0.5,1.2c0.9,0.4,1.9,0.4,2.8,0c0.3-0.3,0.5-0.7,0.5-1.2v-6
	h1.5v6c0.1,0.8-0.2,1.7-0.9,2.2C339.9,470.1,337.9,470.1,336.4,469.2z"/>
<path d="M343.7,463.4h1.2l0.3,0.6l1-0.5c0.4-0.2,0.8-0.2,1.2-0.2c0.6,0,1.1,0.2,1.5,0.6c0.3,0.5,0.5,1,0.5,1.6v4.3h-1.5v-4.1
	c0.1-0.5-0.3-1-0.9-1.1c-0.1,0-0.1,0-0.2,0H346l-0.8,0.4v4.7h-1.5V463.4z"/>
<path d="M350.9,462.3c-0.1,0-0.1-0.1-0.1-0.2V461c0-0.1,0-0.1,0.1-0.1l0,0h1.4c0.1,0,0.1,0,0.1,0.1l0,0v1.1c0,0.2-0.1,0.3-0.2,0.3
	h-1.3V462.3z M350.8,463.4h1.5v6.4h-1.5V463.4z"/>
<path d="M354.7,469.3c-0.4-0.5-0.5-1.1-0.5-1.7v-3h-1v-1l1-0.2l0.2-1.8h1.2v1.8h1.6v1.2h-1.6v3c0,0.3,0.1,0.6,0.2,0.8
	c0.2,0.1,0.4,0.2,0.6,0.2h0.8v1.1h-1.1C355.6,469.7,355.1,469.6,354.7,469.3z"/>
<path d="M316,404.5h1.9l2.8,8.8h-1.5l-0.7-2.1h-3.2l-0.7,2.1h-1.5L316,404.5z M318.1,409.9l-1.2-4.2l-1.3,4.2H318.1z"/>
<path d="M322.3,412.9c-0.3-0.5-0.5-1-0.5-1.6v-6.8h1.5v6.6c0,0.2,0.1,0.5,0.2,0.7l0.7,0.2h2.9v1.3h-3.3
	C323.3,413.4,322.7,413.2,322.3,412.9z"/>
<path d="M328.8,412.7c-0.7-0.5-1-1.4-0.9-2.2v-6h1.5v6c0,0.5,0.1,0.9,0.5,1.2c0.9,0.4,1.9,0.4,2.8,0c0.4-0.2,0.5-0.6,0.5-1.2v-6h1.5
	v6c0.1,0.8-0.2,1.7-0.9,2.2C332.3,413.6,330.3,413.6,328.8,412.7z"/>
<rect x="285.2" y="362.7" class="st6" width="77.8" height="20"/>
<rect x="285.2" y="417.5" class="st6" width="77.8" height="20"/>
<rect x="285.2" y="474" class="st6" width="77.8" height="20"/>
<path d="M321.6,376.4c-0.4-0.5-0.6-1.1-0.6-1.7v-4.5c0-0.6,0.2-1.2,0.6-1.7c0.5-0.4,1.1-0.7,1.7-0.6h1.8c0.6,0,1.2,0.2,1.6,0.6
	c0.4,0.5,0.6,1.1,0.6,1.7v4.5c0,0.6-0.2,1.2-0.6,1.7c-0.5,0.3-1,0.5-1.6,0.5h-1.9C322.6,376.9,322.1,376.7,321.6,376.4z
	 M324.7,375.6c0.5,0.1,1-0.3,1.1-0.9c0-0.1,0-0.1,0-0.2v-4.1c0.1-0.5-0.3-1-0.9-1.1c-0.1,0-0.1,0-0.2,0h-1.2c-0.3,0-0.6,0.1-0.8,0.3
	c-0.2,0.1-0.3,0.4-0.3,0.8v4.1c0,0.3,0.1,0.6,0.3,0.8c0.2,0.2,0.6,0.3,0.9,0.3L324.7,375.6z"/>
<path d="M321.6,487.9c-0.4-0.4-0.6-1-0.6-1.6v-4.5c0-0.6,0.2-1.2,0.6-1.7c0.5-0.4,1.1-0.7,1.7-0.6h1.8c0.6,0,1.2,0.2,1.6,0.6
	c0.4,0.5,0.6,1.1,0.6,1.7v4.5c0,0.6-0.2,1.2-0.6,1.6c-0.4,0.4-1,0.6-1.6,0.6h-1.9C322.6,488.5,322,488.3,321.6,487.9z M324.7,487.2
	c0.5,0.1,1-0.3,1.1-0.9c0-0.1,0-0.1,0-0.2V482c0.1-0.5-0.3-1-0.9-1.1c-0.1,0-0.1,0-0.2,0h-1.2l-0.8,0.2c-0.2,0.2-0.3,0.6-0.3,0.9
	v4.1c0,0.3,0.1,0.6,0.3,0.8c0.2,0.2,0.6,0.3,0.9,0.3H324.7z"/>
<path d="M321.6,430.7c-0.4-0.5-0.7-1.1-0.6-1.7v-4.4c0-0.6,0.2-1.2,0.6-1.7c0.5-0.4,1.1-0.7,1.7-0.6h1.8c0.6,0,1.2,0.2,1.6,0.6
	c0.4,0.5,0.6,1.1,0.6,1.7v4.4c0.1,0.6-0.2,1.2-0.6,1.7c-0.4,0.4-1,0.6-1.6,0.6h-1.9C322.6,431.3,322,431.1,321.6,430.7z
	 M324.7,429.9c0.5,0.1,1-0.3,1.1-0.9c0-0.1,0-0.1,0-0.2v-4.1c0.1-0.5-0.3-1-0.9-1.1c-0.1,0-0.1,0-0.2,0h-1.2c-0.5-0.1-1,0.3-1.1,0.9
	c0,0.1,0,0.1,0,0.2v4.1c0,0.3,0.1,0.7,0.3,0.9l0.9,0.2H324.7z"/>
<rect x="173.4" y="372.7" class="st13" width="40.4" height="25"/>
<rect x="213.8" y="372.7" class="st6" width="40" height="25"/>
<rect x="173.6" y="402.2" class="st13" width="40.4" height="25"/>
<rect x="214" y="402.2" class="st6" width="40" height="25"/>
<rect x="173.4" y="431.9" class="st13" width="40.4" height="25"/>
<rect x="213.8" y="431.9" class="st6" width="40" height="25"/>
<rect x="173.4" y="461.6" class="st13" width="40.4" height="25"/>
<rect x="213.8" y="461.6" class="st6" width="40" height="25"/>
<path class="st6" d="M187.5,389.3v-7.6h3.1c0.8-0.1,1.6,0.1,2.3,0.5c0.5,0.5,0.7,1.3,0.7,2c0.1,0.7-0.1,1.5-0.6,2
	c-0.6,0.4-1.4,0.6-2.1,0.5h-1.3v2.7L187.5,389.3z M189.6,385.1h0.9c0.4,0,0.7,0,0.8-0.2c0.5-0.3,0.6-0.9,0.3-1.4
	c-0.2-0.3-0.7-0.5-1.1-0.4h-0.9V385.1z"/>
<path class="st6" d="M200,387.6v1.5c-0.8,0.2-1.7,0.3-2.5,0.3c-1,0.1-1.9-0.2-2.6-0.9c-0.6-0.9-0.9-1.9-0.8-3
	c-0.1-1.1,0.2-2.2,0.8-3.1c0.5-0.6,1.3-0.8,2.6-0.8c0.8,0,1.6,0,2.4,0.2l-0.2,1.5h-2.2c-0.4,0-0.8,0.2-1,0.5
	c-0.2,0.6-0.2,1.1-0.2,1.7c0,0.6,0.1,1.1,0.2,1.7c0.2,0.3,0.6,0.5,1,0.4L200,387.6z"/>
<path d="M231.5,388.8c-0.4-0.4-0.6-0.9-0.6-1.5v-4.1c0-0.6,0.2-1.2,0.6-1.6c0.4-0.3,1-0.5,1.5-0.5h1.7c0.5,0,1.1,0.2,1.5,0.5
	c0.3,0.5,0.5,1,0.5,1.6v4.1c0,0.6-0.2,1.1-0.6,1.5c-0.4,0.3-0.9,0.5-1.4,0.5H233C232.5,389.3,231.9,389.2,231.5,388.8z M234.3,388.1
	c0.5,0.1,0.9-0.3,1-0.8c0-0.1,0-0.1,0-0.2v-3.8c0-0.7-0.3-1-0.9-1h-1.1c-0.3,0-0.6,0.1-0.8,0.3c-0.1,0.2-0.2,0.5-0.2,0.7v3.8
	c0,0.2,0.1,0.5,0.2,0.7c0.2,0.2,0.5,0.3,0.8,0.3H234.3z"/>
<path class="st6" d="M188.2,411.3h1.9c0.3-0.1,0.6,0.2,0.7,0.5c0,0.1,0,0.1,0,0.2l0.3,6.8h-1.9l-0.2-6h-0.2l-0.9,4.3
	c-0.1,0.4-0.4,0.6-0.8,0.6h-1.2c-0.4,0.1-0.7-0.2-0.8-0.6c0,0,0,0,0,0l-1-4.3H184l-0.2,6h-1.9l0.2-6.8c0.1-0.5,0.3-0.7,0.8-0.7h1.8
	c0.4-0.1,0.7,0.2,0.8,0.6c0,0,0,0,0,0l0.7,3.4c0.1,0.4,0.2,0.7,0.2,1.1h0.1c0.1-0.2,0.1-0.3,0.1-0.5c0-0.2,0-0.4,0.1-0.6l0.7-3.4
	C187.5,411.5,187.8,411.2,188.2,411.3C188.2,411.3,188.2,411.3,188.2,411.3z"/>
<path class="st6" d="M196.4,417h-2.3l-0.4,1.8h-2.1l2-7c0.1-0.2,0.1-0.3,0.3-0.4h2.8c0.1,0.1,0.2,0.2,0.2,0.4l2.1,7h-2.1L196.4,417z
	 M196.1,415.5l-0.5-1.9c-0.1-0.3-0.2-0.5-0.2-0.8h-0.3c0,0.3-0.1,0.5-0.1,0.8l-0.5,1.9H196.1z"/>
<path class="st6" d="M206,418.8h-2.2l-0.5-2.2c-0.1-0.3-0.1-0.4-0.2-0.5h-1.5v2.8h-2v-7.5l3.1-0.2c0.8-0.1,1.6,0.1,2.3,0.5
	c0.5,0.5,0.8,1.1,0.7,1.8c0,1.1-0.5,1.8-1.5,1.9l0,0c0.7,0.1,1,0.5,1.2,1.2L206,418.8z M201.6,414.5h1c0.3,0,0.6,0,0.8-0.2
	c0.2-0.1,0.2-0.4,0.2-0.7s0-0.6-0.2-0.8c-0.2-0.2-0.5-0.2-0.8-0.2h-1V414.5z"/>
<path d="M231.6,418.4c-0.3-0.5-0.5-1-0.5-1.6v-4c0-0.6,0.2-1.1,0.5-1.6c0.4-0.4,1-0.6,1.6-0.5h1.6c0.6-0.1,1.2,0.1,1.6,0.5
	c0.3,0.5,0.5,1,0.5,1.6v4c0,0.6-0.2,1.2-0.6,1.6c-0.4,0.4-1,0.5-1.5,0.5h-1.6C232.6,418.9,232.1,418.7,231.6,418.4z M234.5,417.7
	c0.7,0,1-0.4,1-1.1v-3.7c0-0.7-0.3-1-1-1h-1.1l-0.7,0.2c-0.2,0.2-0.3,0.5-0.3,0.8v3.7c0,0.3,0.1,0.6,0.3,0.8
	c0.2,0.2,0.5,0.3,0.8,0.3L234.5,417.7z"/>
<path class="st6" d="M184.7,435.8h1.9c0.5,0,0.7,0.3,0.8,0.8l0.2,6.8h-1.8l-0.3-6h-0.2l-0.9,4.3c-0.1,0.4-0.4,0.7-0.8,0.6
	c0,0,0,0,0,0h-1.2c-0.4,0-0.7-0.2-0.8-0.6l-0.9-4.3h-0.2l-0.2,6h-1.9l0.3-6.8c-0.1-0.4,0.2-0.7,0.6-0.8c0,0,0.1,0,0.1,0h1.9
	c0.4,0,0.7,0.3,0.8,0.7l0.7,3.4c0.1,0.4,0.2,0.7,0.2,1.1h0.1v-0.5c0.1-0.2,0.1-0.5,0.1-0.7l0.7-3.3
	C184,436.1,184.3,435.8,184.7,435.8z"/>
<path class="st6" d="M188.8,443.4v-7.6h3.1c1-0.1,2,0.2,2.7,0.9c0.5,0.5,0.7,1.5,0.7,3s-0.2,2.6-0.7,3.1s-1.4,0.8-2.7,0.8
	L188.8,443.4z M190.9,437.3v4.7h1c0.4,0,0.8-0.2,1-0.5c0.3-0.6,0.4-1.3,0.3-1.9c0.1-0.6,0-1.2-0.3-1.8c-0.2-0.4-0.5-0.5-1-0.5
	L190.9,437.3z"/>
<path class="st6" d="M202.8,443.4h-2.2l-0.5-2.3c0-0.2-0.1-0.3-0.2-0.4h-1.4v2.8h-2.1v-7.6h3.1c0.8-0.1,1.6,0.1,2.3,0.5
	c0.5,0.5,0.8,1.1,0.7,1.8c0,1.1-0.5,1.8-1.5,1.9l0,0c0.7,0.1,1,0.5,1.2,1.2L202.8,443.4z M198.5,439.1h0.9c0.3,0,0.6,0,0.8-0.2
	c0.2-0.1,0.2-0.4,0.2-0.7s0-0.6-0.2-0.8c-0.2-0.2-0.5-0.2-0.8-0.2h-0.9V439.1z"/>
<path class="st6" d="M204.8,444.3h-1.6l4.3-8.5h1.6L204.8,444.3z"/>
<path class="st6" d="M188.1,446.8h1.9c0.5,0,0.7,0.3,0.7,0.8l0.3,6.8h-1.9l-0.2-6h-0.2l-0.9,4.3c-0.1,0.4-0.4,0.6-0.8,0.6h-1.2
	c-0.4,0-0.7-0.2-0.8-0.6l-0.9-4.3h-0.2l-0.2,6h-1.9l0.3-6.8c0-0.5,0.2-0.8,0.7-0.8h1.9c0.4,0,0.7,0.3,0.8,0.7l0.7,3.4
	c0,0.2,0.1,0.6,0.1,1.1h0.1c0.1-0.1,0.1-0.3,0.1-0.5c0-0.3,0.1-0.5,0.1-0.7l0.7-3.3C187.4,447.1,187.7,446.8,188.1,446.8z"/>
<path class="st6" d="M196.7,450.5L196.7,450.5c0.5,0,0.9,0.2,1.2,0.6c0.3,0.4,0.4,0.9,0.4,1.4c0.1,0.6-0.1,1.2-0.6,1.6
	c-0.6,0.3-1.4,0.5-2.1,0.4h-3.4v-7.6h3.1c0.7-0.1,1.5,0.1,2.1,0.4c0.5,0.2,0.7,0.8,0.7,1.5c0,0.5-0.1,0.9-0.4,1.3
	C197.5,450.3,197.2,450.4,196.7,450.5z M194.2,449.9h1c0.4,0.1,0.8,0,0.9-0.4c0.1-0.2,0.1-0.3,0-0.5c0-0.2-0.1-0.4-0.2-0.6l-0.7-0.2
	h-1V449.9z M194.2,453.1h1.1c0.3,0,0.5,0,0.7-0.2c0.2-0.1,0.2-0.4,0.2-0.8s0-0.6-0.2-0.8c-0.2-0.2-0.5-0.2-0.8-0.2h-1V453.1z"/>
<path class="st6" d="M205.7,454.4h-2.1l-0.6-2.3c0-0.2-0.1-0.3-0.2-0.4h-1.4v2.8h-2.1v-7.6h3.1c0.8-0.1,1.6,0.1,2.3,0.5
	c0.5,0.5,0.8,1.1,0.7,1.8c0,1.1-0.5,1.8-1.5,1.9l0,0c0.6,0,1.2,0.6,1.2,1.2L205.7,454.4z M201.4,450.1h1c0.3,0,0.6-0.1,0.8-0.2
	c0.1-0.2,0.2-0.5,0.2-0.7c0.1-0.4-0.1-0.9-0.5-1c-0.2,0-0.3,0-0.5,0h-1V450.1z"/>
<path d="M231.5,448c-0.4-0.4-0.6-0.9-0.6-1.5v-4.1c0-0.6,0.2-1.1,0.6-1.5c0.4-0.4,0.9-0.6,1.5-0.6h1.7c0.6,0,1.1,0.2,1.5,0.6
	c0.3,0.4,0.5,1,0.5,1.5v4.1c0,0.6-0.2,1.1-0.6,1.5c-0.3,0.4-0.9,0.6-1.4,0.6H233C232.4,448.6,231.9,448.4,231.5,448z M234.3,447.3
	c0.7,0,1-0.3,1-1v-3.7c0-0.7-0.3-1-0.9-1h-1.1l-0.8,0.2c-0.1,0.2-0.2,0.5-0.2,0.8v3.7c0,0.3,0.1,0.6,0.2,0.8
	c0.2,0.2,0.5,0.2,0.8,0.2H234.3z"/>
<path class="st6" d="M191.1,476.5l0.2,1.5c-0.8,0.2-1.7,0.3-2.5,0.3c-1.3,0-2.1-0.2-2.6-0.8c-0.6-0.9-0.9-2-0.8-3.1
	c-0.1-1.1,0.2-2.1,0.8-3c0.7-0.7,1.6-1,2.6-0.9c0.8,0,1.6,0.1,2.3,0.3v1.5h-2.2c-0.4,0-0.8,0.2-1,0.5c-0.1,0.6-0.2,1.1-0.2,1.7
	c0,0.6,0,1.1,0.2,1.7c0.2,0.3,0.6,0.5,1,0.5L191.1,476.5z"/>
<path class="st6" d="M194.3,478.2h-2.1v-7.6h2.1V478.2z"/>
<path class="st6" d="M202,478.2h-2.2l-0.5-2.3l-0.2-0.4h-1.5v2.8h-2v-7.6h3.1c0.8,0,1.6,0.1,2.3,0.5c0.5,0.3,0.7,0.9,0.7,1.8
	c0.1,0.9-0.5,1.7-1.4,1.8c0,0-0.1,0-0.1,0l0,0c0.6,0.1,1.1,0.6,1.2,1.2L202,478.2z M197.6,473.8h1.8c0.2-0.2,0.2-0.4,0.2-0.8
	s0-0.6-0.2-0.7c-0.2-0.2-0.5-0.2-0.8-0.2h-1V473.8z"/>
<path d="M231.5,477.7c-0.4-0.4-0.6-0.9-0.6-1.5v-4.1c0-1.2,0.9-2.1,2.1-2.1h0h1.7c0.6,0,1.1,0.2,1.5,0.6c0.3,0.4,0.5,1,0.5,1.5v4.1
	c0,0.6-0.2,1.1-0.6,1.5c-0.3,0.4-0.9,0.6-1.4,0.6H233C232.4,478.3,231.9,478.1,231.5,477.7z M234.3,477c0.7,0,1-0.3,1-1v-3.7
	c0-0.7-0.3-1.1-0.9-1.1h-1.1c-0.3,0-0.6,0.1-0.8,0.3c-0.1,0.2-0.2,0.5-0.2,0.8v3.7c0,0.3,0.1,0.6,0.2,0.8l0.8,0.2H234.3z"/>
<path class="st11" d="M431.8,305H644c6.5,0,11.8,5.3,11.8,11.8v184.9c0,6.5-5.3,11.8-11.8,11.8H431.8c-6.5,0-11.8-5.3-11.8-11.8
	V316.8C420,310.3,425.3,305,431.8,305z"/>
<path class="st12" d="M433.5,315h208.8c1.9,0,3.5,1.6,3.5,3.5v13.2c0,1.9-1.6,3.5-3.5,3.5H433.5c-1.9,0-3.5-1.6-3.5-3.5v-13.2
	C430,316.6,431.6,315,433.5,315z"/>
<path class="st12" d="M433.2,341.3H539c1.8,0,3.2,1.4,3.2,3.2v155.8c0,1.8-1.4,3.2-3.2,3.2H433.2c-1.8,0-3.2-1.4-3.2-3.2V344.5
	C430,342.7,431.4,341.3,433.2,341.3z"/>
<path class="st12" d="M550.9,341.3h92c1.6,0,2.9,1.3,2.9,2.9v44.2c0,1.6-1.3,2.9-2.9,2.9h-92c-1.6,0-2.9-1.3-2.9-2.9v-44.2
	C548,342.6,549.3,341.3,550.9,341.3z"/>
<path class="st12" d="M551.8,453.5H642c2.1,0,3.8,1.7,3.8,3.8v42.4c0,2.1-1.7,3.8-3.8,3.8h-90.2c-2.1,0-3.8-1.7-3.8-3.8v-42.4
	C548,455.2,549.7,453.5,551.8,453.5z"/>
<path class="st12" d="M551.3,397.4h91.2c1.8,0,3.3,1.5,3.3,3.3v43.4c0,1.8-1.5,3.3-3.3,3.3h-91.2c-1.8,0-3.3-1.5-3.3-3.3v-43.4
	C548,398.9,549.5,397.4,551.3,397.4z"/>
<path d="M523.5,328.4l0.2,1.7c-1.1,0.3-2.2,0.4-3.3,0.4c-1.3,0.1-2.5-0.3-3.4-1.2c-0.7-1.2-1-2.7-0.9-4.1c-0.1-1.5,0.2-2.9,0.9-4.2
	c0.9-0.9,2.1-1.3,3.4-1.2c1,0,2.1,0.1,3.1,0.3l-0.2,1.8h-2.9c-0.7,0-1.3,0.2-1.5,0.7c-0.3,0.9-0.5,1.8-0.4,2.7
	c-0.1,0.9,0.1,1.8,0.4,2.6c0.2,0.5,0.8,0.7,1.5,0.7L523.5,328.4z"/>
<path d="M528.6,322.7c1-0.1,2.1,0.2,2.9,0.9c0.7,0.8,1,1.9,0.9,3c0,1.5-0.3,2.5-0.9,3c-0.8,0.7-1.9,1-2.9,0.9
	c-1.1,0.1-2.2-0.2-3-0.9c-0.6-0.5-0.9-1.5-0.9-3c-0.4-1.8,0.8-3.5,2.6-3.9C527.7,322.6,528.2,322.6,528.6,322.7z M528.6,324.4
	c-0.6,0-1,0.1-1.2,0.4c-0.4,1.2-0.4,2.4,0,3.6c0.3,0.4,0.7,0.5,1.2,0.5c0.4,0,0.8-0.2,1.1-0.5c0.4-1.2,0.4-2.4,0-3.6
	C529.4,324.5,529,324.3,528.6,324.4L528.6,324.4z"/>
<path d="M539.2,322.7l-0.2,2.1h-0.6c-0.8,0-1.6,0.2-2.3,0.5v5h-2.2v-7.4h1.7l0.2,1.1c0.8-0.8,1.9-1.2,3-1.3L539.2,322.7z"/>
<path d="M544.8,327.4h-2.6c0,0.4,0.2,0.8,0.5,1.1c0.4,0.2,0.8,0.2,1.2,0.2h2.8l0.2,1.4c-1,0.4-2.1,0.5-3.2,0.5
	c-2.4-0.2-4.1-2.3-3.9-4.7c0.1-0.8,0.4-1.6,0.9-2.2c0.8-0.7,1.9-1,2.9-0.9c1-0.1,1.9,0.2,2.7,0.7c0.6,0.5,0.8,1.2,0.8,1.9
	c0,0.6-0.2,1.1-0.5,1.6C546.1,327.3,545.4,327.5,544.8,327.4z M542.1,326h2.1c0.3,0,0.5,0,0.6-0.2c0.1-0.1,0.1-0.3,0.1-0.5
	c0-0.3-0.1-0.6-0.2-0.8l-1-0.2c-0.4,0-0.9,0.1-1.2,0.4C542.3,325.1,542.1,325.5,542.1,326z"/>
<path d="M560,326.4v1.4l-1.3,0.2l0,0v2.3h-2.2V328h-4c-0.4,0-0.9-0.1-1.1-0.5c-0.2-0.3-0.2-0.8,0-1.1l2.6-6.4h2.2l-2.5,5.9v0.4h2.8
	v-2.8l0.4-1.6h1.8v4.4L560,326.4z"/>
<path d="M461,350.8h3.6c0.7,0,1.3,0.2,1.8,0.6c0.5,0.6,0.7,1.3,0.6,2.1c0.1,0.6-0.1,1.2-0.4,1.7c-0.2,0.4-0.6,0.7-1.1,0.8l1.7,3.6
	h-1.5l-1.5-3.4h-1.8v3.4H461V350.8z M464.3,355c0.3,0,0.7-0.1,0.9-0.3c0.2-0.3,0.4-0.8,0.3-1.2c0-0.4-0.1-0.8-0.3-1.1
	c-0.2-0.2-0.6-0.3-0.9-0.3h-1.9v2.9H464.3z"/>
<path d="M469.2,359.4c-0.4-0.2-0.7-0.6-0.9-1c-0.4-1.3-0.4-2.7,0-4c0.1-0.4,0.4-0.8,0.8-1c0.5-0.2,1.1-0.3,1.7-0.3l1.5,0.2
	c0.3,0.1,0.6,0.4,0.8,0.7c0.2,0.4,0.3,0.8,0.3,1.3c0,0.5-0.2,1-0.5,1.3c-0.5,0.3-1,0.4-1.5,0.4h-1.9c0,0.3,0.1,0.6,0.2,0.9
	c0.1,0.2,0.3,0.4,0.5,0.5l1,0.2h2v0.9h-2.4C470.3,359.6,469.7,359.6,469.2,359.4z M471.2,356.1l0.7-0.2c0.1-0.1,0.1-0.3,0.1-0.6
	s0-0.7-0.2-0.9l-1-0.2c-0.3,0-0.6,0-0.8,0.2c-0.2,0.1-0.3,0.3-0.4,0.5c-0.1,0.4-0.1,0.8-0.1,1.2H471.2z"/>
<path d="M480.7,354l-1.2,0.2c0.2,0.1,0.3,0.3,0.4,0.5c0.1,0.3,0.2,0.6,0.2,0.9c0,0.5-0.2,1.1-0.6,1.4c-0.4,0.4-1.1,0.7-1.7,0.6h-1.1
	c-0.6,0-0.9,0.2-0.9,0.5s0.1,0.3,0.2,0.3h2.3c0.6,0,1.3,0.1,1.8,0.5c0.3,0.4,0.5,0.9,0.5,1.4v0.2c0,0.6-0.2,1.1-0.6,1.5
	c-0.5,0.4-1.2,0.5-1.8,0.5h-1.9c-0.5,0-1.1-0.1-1.5-0.4c-0.4-0.3-0.6-0.7-0.6-1.2v-0.2c0-0.3,0.1-0.6,0.3-0.8
	c0.2-0.3,0.4-0.5,0.7-0.6c-0.2-0.1-0.4-0.3-0.5-0.5c-0.1-0.1-0.1-0.3-0.1-0.6c0-0.3,0.1-0.5,0.3-0.7c0.1-0.3,0.4-0.4,0.7-0.5
	c-0.3-0.1-0.6-0.4-0.8-0.7c-0.1-0.4-0.2-0.7-0.2-1.1c0-0.6,0.2-1.2,0.6-1.6c0.6-0.4,1.3-0.5,2-0.5h3.5L480.7,354z M476.7,359.7
	c-0.3,0-0.6,0-0.8,0.2c-0.2,0.1-0.3,0.4-0.3,0.6v0.2c0,0.2,0.1,0.5,0.3,0.6c0.2,0.2,0.5,0.2,0.8,0.2h1.3c0.4,0,0.7,0,0.9-0.2
	c0.2-0.1,0.3-0.4,0.3-0.6v-0.2c0-0.6-0.3-0.8-1.1-0.8L476.7,359.7z M478.5,356.2c0.2-0.2,0.3-0.5,0.3-0.8c0-0.4-0.1-0.7-0.3-0.8
	c-0.2-0.2-0.5-0.3-0.8-0.3H477c-0.3,0-0.6,0.1-0.8,0.3c-0.2,0.1-0.3,0.4-0.3,0.8c0,0.3,0.1,0.6,0.3,0.8c0.2,0.2,0.4,0.3,0.7,0.3h0.7
	C477.9,356.5,478.3,356.4,478.5,356.2z"/>
<path d="M481.7,352.1c-0.1,0-0.1,0-0.1-0.1l0,0v-1.1c0-0.1,0-0.2,0.1-0.2h1.4c0.1,0,0.1,0.1,0.1,0.2v1.1c0,0.1-0.1,0.2-0.2,0.2h0
	h-1.3V352.1z M481.6,353.2h1.5v6.4h-1.5V353.2z"/>
<path d="M485.6,359.6h-1.1v-0.9h2.7c0.3,0,0.6-0.1,0.8-0.2c0.1,0,0.2-0.2,0.2-0.5v-0.2c0-0.2-0.1-0.4-0.2-0.5l-0.7-0.2h-1
	c-1.3,0-1.9-0.5-1.9-1.7V355c0-0.5,0.2-1,0.5-1.4c0.6-0.4,1.3-0.5,2-0.5h1.2l1.1,0.2v0.9h-3.3c-0.2,0.1-0.2,0.3-0.2,0.6v0.2
	c0,0.3,0,0.4,0.2,0.5h1.7c0.5,0,1,0.2,1.4,0.5c0.3,0.3,0.5,0.7,0.5,1.2v0.5c0,0.5-0.2,1-0.7,1.3c-0.5,0.3-1.2,0.5-1.8,0.4
	L485.6,359.6z"/>
<path d="M491.5,359.1c-0.3-0.5-0.5-1.1-0.4-1.7v-3h-1v-1l1.1-0.2l0.2-1.8h1.1v1.8h1.7v1.2h-1.7v3c0,0.3,0.1,0.6,0.3,0.8l0.5,0.3h0.8
	v1.1H493C492.4,359.7,491.9,359.5,491.5,359.1z"/>
<path d="M496.2,359.4c-0.4-0.2-0.7-0.6-0.9-1c-0.3-1.3-0.3-2.7,0-4c0.2-0.4,0.5-0.8,0.9-1c0.5-0.2,1.1-0.3,1.7-0.3l1.5,0.2
	c0.3,0.1,0.6,0.4,0.8,0.7c0.1,0.4,0.2,0.9,0.2,1.3c0,0.5-0.2,1-0.5,1.3c-0.5,0.3-1,0.4-1.5,0.4h-1.9c0,0.3,0.1,0.6,0.2,0.9
	c0.1,0.2,0.3,0.4,0.5,0.5l1.1,0.2h1.9v0.9h-2.3C497.3,359.6,496.8,359.6,496.2,359.4z M498.3,356.1c0.4,0.1,0.7-0.2,0.8-0.6
	c0-0.1,0-0.1,0-0.2c0-0.3-0.1-0.7-0.3-0.9l-0.9-0.2c-0.4,0-0.7,0-0.8,0.2c-0.2,0.1-0.4,0.3-0.4,0.5c-0.1,0.4-0.2,0.8-0.2,1.2
	L498.3,356.1z"/>
<path d="M501.7,353.2h1.2l0.3,1l0.9-0.8c0.3-0.2,0.7-0.3,1.1-0.3h0.5v1.5H504l-0.8,0.6v4.2h-1.5V353.2z"/>
<path d="M507.7,359.6h-1.1v-0.9h2.8l0.7-0.2c0.1,0,0.2-0.2,0.2-0.5v-0.2c0-0.2-0.1-0.4-0.2-0.5l-0.7-0.2h-1c-1.3,0-1.9-0.5-1.9-1.7
	V355c0-0.5,0.2-1,0.5-1.4c0.6-0.4,1.3-0.5,2-0.5h1.2l1.1,0.2v0.9H508c-0.2,0.1-0.2,0.3-0.2,0.6v0.2c0,0.3,0,0.4,0.2,0.5h1.7
	c0.5,0,1,0.2,1.4,0.5c0.3,0.3,0.5,0.7,0.5,1.2v0.5c0.1,0.5-0.2,1.1-0.7,1.3c-0.5,0.3-1.2,0.5-1.8,0.4L507.7,359.6z"/>
<path d="M564.1,349.1h1.9l2.9,8.8h-1.6l-0.7-2.1h-3.2l-0.6,2.1h-1.6L564.1,349.1z M566.3,354.5l-1.3-4.2l-1.2,4.2H566.3z"/>
<path d="M570.1,357.3c-0.5-0.8-0.7-1.7-0.6-2.6c0-0.7,0.1-1.4,0.3-2c0.2-0.4,0.5-0.8,0.9-1c0.4-0.2,0.9-0.3,1.4-0.3
	c0.7,0,1.5,0.1,2.2,0.3v0.8h-1.7l-1,0.2c-0.3,0.1-0.4,0.4-0.5,0.7c-0.1,0.4-0.2,0.9-0.2,1.3c0,0.5,0.1,0.9,0.2,1.4
	c0.1,0.3,0.3,0.5,0.5,0.6l1,0.2h1.8v0.8l-1.1,0.2h-1.2C571.4,358,570.7,357.8,570.1,357.3z"/>
<path d="M576,357.3c-0.5-0.8-0.8-1.7-0.7-2.6c0-0.7,0.1-1.4,0.3-2c0.2-0.4,0.5-0.7,0.9-1c0.5-0.2,1-0.3,1.5-0.3
	c0.7,0,1.5,0.1,2.2,0.3v0.8h-1.7l-1,0.2c-0.3,0.1-0.4,0.4-0.5,0.7c-0.1,0.4-0.2,0.9-0.2,1.3c0,0.5,0.1,0.9,0.2,1.4
	c0.1,0.3,0.3,0.5,0.5,0.6l1,0.2h1.8v0.8l-1.1,0.2H578C577.3,358,576.6,357.8,576,357.3z"/>
<path d="M581.9,357.5c-0.4-0.4-0.5-1-0.5-1.5v-4.5h1.5v4.1c0,0.4,0.1,0.7,0.3,0.8s0.4,0.3,0.8,0.3c0.5,0,1.1-0.2,1.5-0.5v-4.7h1.5
	v6.4h-1.2l-0.3-0.6c-0.6,0.5-1.4,0.7-2.2,0.7C582.8,358,582.3,357.8,581.9,357.5z"/>
<path d="M588.5,351.5h1.2l0.3,0.7c0.3-0.3,0.7-0.5,1.1-0.6l1.2-0.2l0.9,0.2c0.3,0.2,0.5,0.4,0.7,0.7c0.3-0.3,0.7-0.5,1.1-0.6
	l1.3-0.3c1.3,0,2,0.8,2,2.3v4.2h-1.5v-4.1c0-0.3-0.1-0.6-0.3-0.8c-0.2-0.2-0.5-0.3-0.8-0.3l-0.8,0.2c-0.3,0.1-0.6,0.2-0.8,0.4
	c0,0.2,0.1,0.4,0.1,0.6v4h-1.5v-4.1c0.1-0.5-0.3-1-0.9-1.1c-0.1,0-0.1,0-0.2,0l-0.8,0.2l-0.8,0.4v4.6h-1.5L588.5,351.5z"/>
<path d="M600.2,357.5c-0.3-0.4-0.5-1-0.4-1.5v-4.5h1.4v4.1c0,0.4,0.1,0.7,0.3,0.8c0.2,0.2,0.5,0.3,0.8,0.3c0.6,0,1.1-0.2,1.6-0.5
	v-4.7h1.5v6.4h-1.2l-0.3-0.6c-0.7,0.5-1.5,0.7-2.3,0.7C601.1,358,600.6,357.8,600.2,357.5z"/>
<path d="M607.4,357.5c-0.4-0.4-0.6-1-0.5-1.6v-7.1h1.5v6.8c0,0.5,0,0.7,0.2,0.9c0.1,0.2,0.3,0.3,0.5,0.3h0.6v1.2h-0.9
	C608.3,358,607.8,357.9,607.4,357.5z"/>
<path d="M610.7,357.6c-0.3-0.3-0.4-0.8-0.4-1.2v-0.6c-0.1-0.5,0.1-0.9,0.5-1.2c0.4-0.3,1-0.5,1.5-0.4h1.9v-0.6
	c0-0.2-0.1-0.4-0.2-0.6c0-0.1-0.2-0.2-0.4-0.3h-2.9v-0.9c0.8-0.2,1.7-0.3,2.5-0.3c0.7,0,1.3,0.1,1.9,0.5c0.5,0.4,0.7,1,0.6,1.6v4.4
	h-1.2l-0.3-0.7c0,0.1-0.2,0.2-0.5,0.3l-0.8,0.4h-1C611.5,358,611,357.9,610.7,357.6z M613.5,356.8l0.7-0.3v-1.6h-1.4
	c-0.7,0.1-1.1,0.4-1.1,1v0.2c0,0.3,0.1,0.5,0.3,0.7l0.6,0.2L613.5,356.8z"/>
<path d="M617.9,357.4c-0.3-0.5-0.5-1.1-0.4-1.7v-3h-1v-1l1.1-0.2l0.2-1.8h1.2v1.8h1.6v1.2H619v3c0,0.4,0,0.6,0.2,0.8l0.5,0.3h0.8
	v1.1h-1C618.9,358,618.3,357.8,617.9,357.4z"/>
<path d="M622.7,357.7c-0.4-0.2-0.7-0.6-0.9-1c-0.2-0.6-0.3-1.3-0.3-2c0-0.7,0.1-1.4,0.3-2c0.2-0.4,0.5-0.8,0.9-1
	c1.1-0.4,2.3-0.4,3.4,0c0.4,0.2,0.7,0.6,0.9,1c0.4,1.3,0.4,2.7,0,4c-0.2,0.4-0.5,0.8-0.9,1C625,358.1,623.8,358.1,622.7,357.7z
	 M625.2,356.7c0.2-0.1,0.4-0.3,0.5-0.6c0.1-0.9,0.1-1.9,0-2.8c-0.1-0.3-0.3-0.5-0.5-0.6h-1.6c-0.2,0.1-0.4,0.3-0.5,0.6
	c-0.1,0.9-0.1,1.9,0,2.8c0.1,0.3,0.3,0.5,0.5,0.6H625.2z"/>
<path d="M628.6,351.5h1.2l0.3,1l0.9-0.8c0.3-0.2,0.7-0.3,1.1-0.3h0.5v1.6h-0.7l-1,0.2l-0.8,0.6v4.2h-1.5V351.5z"/>
<path d="M565.3,469.9c-0.5-0.3-0.8-0.8-1-1.4c-0.2-0.9-0.3-1.9-0.3-2.8c0-0.9,0.1-1.9,0.3-2.8c0.2-0.6,0.6-1,1.1-1.3
	c0.5-0.3,1.2-0.5,1.8-0.4h1.4l1.3,0.3v1.1h-2.4c-0.4-0.1-0.9,0.1-1.2,0.3c-0.3,0.1-0.5,0.4-0.7,0.9c-0.1,0.7-0.2,1.3-0.2,2
	c0,0.7,0.1,1.3,0.2,2c0.1,0.4,0.3,0.8,0.6,0.9c0.4,0.2,0.8,0.3,1.3,0.3l2.4-0.2v1.2c-0.9,0.2-1.9,0.3-2.8,0.3
	C566.5,470.3,565.9,470.1,565.3,469.9z"/>
<path d="M572,469.9c-0.4-0.2-0.7-0.6-0.9-1c-0.2-0.6-0.3-1.3-0.3-2c0-0.7,0.1-1.4,0.3-2c0.2-0.4,0.5-0.8,0.9-1
	c1.1-0.4,2.3-0.4,3.4,0c0.4,0.2,0.7,0.6,0.9,1c0.4,1.3,0.4,2.7,0,4c-0.2,0.4-0.5,0.8-0.9,1C574.3,470.3,573.1,470.3,572,469.9z
	 M574.5,468.9c0.2-0.1,0.4-0.3,0.5-0.6c0.1-0.9,0.1-1.9,0-2.8c-0.1-0.3-0.3-0.5-0.5-0.6h-1.6c-0.2,0.1-0.4,0.3-0.5,0.6
	c-0.1,0.9-0.1,1.9,0,2.8c0.1,0.3,0.3,0.5,0.5,0.6H574.5z"/>
<path d="M577.9,463.7h1.2l0.3,0.7c0.3-0.3,0.6-0.5,1-0.6l1.2-0.2c0.6,0,1.1,0.2,1.5,0.6c0.3,0.5,0.4,1,0.4,1.6v4.3h-1.4V466
	c0.1-0.5-0.3-1-0.9-1.1c-0.1,0-0.1,0-0.2,0l-0.8,0.2l-0.8,0.4v4.6h-1.5L577.9,463.7z"/>
<path d="M585.8,469.6c-0.3-0.5-0.5-1.1-0.4-1.7v-3h-1.1v-1l1.1-0.2l0.2-1.8h1.2v1.8h1.6v1.2h-1.6v3c0,0.4,0,0.7,0.2,0.8l0.5,0.3h0.8
	v1.1h-1C586.8,470.2,586.2,470,585.8,469.6z"/>
<path d="M589.6,463.7h1.2l0.3,1l0.9-0.8c0.3-0.2,0.7-0.3,1.1-0.3h0.5v1.5h-1.7l-0.8,0.6v4.2h-1.5V463.7z"/>
<path d="M595.7,469.9c-0.5-0.2-0.8-0.5-1-1c-0.2-0.6-0.3-1.3-0.3-2c0-0.7,0.1-1.4,0.3-2c0.2-0.4,0.5-0.8,0.9-1
	c0.5-0.2,1.1-0.3,1.7-0.3c0.6,0,1.2,0.1,1.7,0.3c0.4,0.2,0.7,0.6,0.9,1c0.4,1.3,0.4,2.7,0,4c-0.2,0.4-0.5,0.8-0.9,1
	c-0.5,0.2-1.1,0.3-1.7,0.3C596.8,470.2,596.2,470.1,595.7,469.9z M598.2,468.9c0.2-0.2,0.3-0.4,0.4-0.6c0.1-0.9,0.1-1.9,0-2.8
	c-0.1-0.2-0.2-0.4-0.4-0.6h-1.7c-0.2,0.1-0.4,0.4-0.4,0.6c-0.3,0.9-0.3,1.9,0,2.8c0,0.2,0.2,0.5,0.4,0.6H598.2z"/>
<path d="M602,469.7c-0.3-0.5-0.5-1-0.5-1.6V461h1.5v6.9c0,0.3,0.1,0.6,0.2,0.8c0.1,0.2,0.4,0.3,0.6,0.3h0.5v1.1h-0.8
	C603,470.2,602.4,470,602,469.7z"/>
<path d="M609.2,469.6c-0.7-0.6-1-1.4-0.9-2.3v-6h1.5v6c0,0.6,0.1,1,0.5,1.2c0.9,0.5,1.9,0.5,2.8,0c0.4-0.3,0.5-0.7,0.5-1.2v-6h1.5v6
	c0.1,0.9-0.2,1.7-0.9,2.3C612.6,470.4,610.8,470.4,609.2,469.6L609.2,469.6z"/>
<path d="M616.5,463.7h1.3l0.2,0.7c0.3-0.2,0.6-0.4,1-0.6l1.2-0.2c0.6,0,1.1,0.2,1.5,0.6c0.3,0.5,0.5,1,0.5,1.6v4.3h-1.5V466
	c0.1-0.5-0.3-1-0.9-1.1c-0.1,0-0.1,0-0.2,0l-0.8,0.2l-0.8,0.4v4.6h-1.5L616.5,463.7z"/>
<path d="M623.7,462.6c-0.1,0-0.1,0-0.1-0.1v-1.1c0-0.1,0-0.2,0.1-0.2h1.4c0.1,0,0.1,0.1,0.1,0.2v1.1c0,0.1-0.1,0.2-0.2,0.2l0,0h-1.3
	V462.6z M623.7,463.7h1.4v6.4h-1.4V463.7z"/>
<path d="M627.5,469.6c-0.4-0.5-0.5-1.1-0.5-1.7v-3h-1v-1l1-0.2l0.3-1.8h1.1v1.8h1.7v1.2h-1.7v3c0,0.3,0,0.6,0.2,0.8l0.6,0.3h0.8v1.1
	h-1C628.4,470.2,627.9,470,627.5,469.6z"/>
<path d="M588.8,404.8h1.9l2.8,8.8H592l-0.7-2.1h-3.2l-0.7,2.1h-1.5L588.8,404.8z M590.9,410.2l-1.2-4.1l-1.2,4.1H590.9z"/>
<path d="M595.1,413.2c-0.4-0.4-0.5-1-0.5-1.5v-6.9h1.5v6.6c0,0.2,0.1,0.5,0.2,0.7l0.7,0.2h2.9v1.3h-3.3
	C596.1,413.6,595.5,413.5,595.1,413.2z"/>
<path d="M601.6,413.1c-0.7-0.6-1-1.4-0.9-2.3v-6h1.5v6c0,0.5,0.1,0.9,0.5,1.2c0.4,0.3,0.9,0.4,1.4,0.4c0.5,0,1-0.1,1.4-0.4
	c0.4-0.2,0.5-0.6,0.5-1.2v-6h1.5v6c0.1,0.9-0.2,1.7-0.9,2.3c-0.8,0.5-1.6,0.7-2.5,0.6C603.2,413.8,602.4,413.5,601.6,413.1z"/>
<rect x="558" y="363" class="st6" width="77.8" height="20"/>
<rect x="558" y="417.8" class="st6" width="77.8" height="20"/>
<rect x="558" y="474.3" class="st6" width="77.8" height="20"/>
<path d="M594.4,376.7c-0.4-0.5-0.6-1.1-0.6-1.7v-4.4c-0.1-1.2,0.7-2.2,1.9-2.3c0.1,0,0.3,0,0.4,0h1.8c0.6,0,1.2,0.2,1.6,0.6
	c0.4,0.5,0.7,1.1,0.6,1.7v4.4c0,0.6-0.2,1.2-0.6,1.7c-0.4,0.4-1,0.6-1.6,0.5H596C595.4,377.3,594.8,377.1,594.4,376.7z M597.5,375.9
	c0.5,0.1,1-0.3,1.1-0.9c0-0.1,0-0.1,0-0.2v-4.1c0.1-0.5-0.3-1-0.9-1.1c-0.1,0-0.1,0-0.2,0h-1.2c-0.3,0-0.6,0.1-0.8,0.3
	c-0.2,0.2-0.2,0.4-0.2,0.8v4.1c0,0.3,0.1,0.6,0.2,0.8c0.2,0.2,0.6,0.3,0.9,0.3L597.5,375.9z"/>
<path d="M594.4,488.3c-0.4-0.5-0.6-1.1-0.6-1.7v-4.5c0-0.6,0.2-1.2,0.6-1.7c0.5-0.4,1.1-0.6,1.7-0.5h1.8c1.2-0.1,2.1,0.8,2.2,2
	c0,0.1,0,0.1,0,0.2v4.5c0,0.6-0.2,1.2-0.6,1.7c-0.5,0.3-1,0.5-1.6,0.5H596C595.4,488.8,594.9,488.6,594.4,488.3z M597.5,487.5
	c0.5,0.1,1-0.3,1.1-0.9c0-0.1,0-0.1,0-0.2v-4.1c0.1-0.5-0.3-1-0.9-1.1c-0.1,0-0.1,0-0.2,0h-1.2c-0.3,0-0.6,0.1-0.8,0.3
	c-0.2,0.2-0.2,0.4-0.2,0.8v4.1c0,0.3,0.1,0.6,0.2,0.8c0.2,0.2,0.6,0.3,0.9,0.3L597.5,487.5z"/>
<path d="M594.4,431c-0.4-0.4-0.6-1-0.6-1.6v-4.5c0-0.6,0.2-1.2,0.6-1.7c0.5-0.4,1.1-0.7,1.7-0.6h1.8c0.6,0,1.2,0.2,1.6,0.6
	c0.4,0.5,0.6,1.1,0.6,1.7v4.5c0,0.6-0.2,1.2-0.6,1.6c-0.4,0.4-1,0.6-1.6,0.6H596C595.4,431.6,594.8,431.4,594.4,431z M597.5,430.3
	c0.5,0.1,1-0.3,1.1-0.9c0-0.1,0-0.1,0-0.2v-4.1c0.1-0.5-0.3-1-0.9-1.1c-0.1,0-0.1,0-0.2,0h-1.2l-0.8,0.2c-0.2,0.2-0.2,0.5-0.2,0.9
	v4.1c0,0.3,0.1,0.6,0.2,0.8c0.2,0.2,0.6,0.3,0.9,0.3L597.5,430.3z"/>
<rect x="446.2" y="373" class="st13" width="40.4" height="25"/>
<rect x="486.6" y="373" class="st6" width="40" height="25"/>
<rect x="446.4" y="402.5" class="st13" width="40.4" height="25"/>
<rect x="486.8" y="402.5" class="st6" width="40" height="25"/>
<rect x="446.2" y="432.2" class="st13" width="40.4" height="25"/>
<rect x="486.6" y="432.2" class="st6" width="40" height="25"/>
<rect x="446.2" y="461.9" class="st13" width="40.4" height="25"/>
<rect x="486.6" y="461.9" class="st6" width="40" height="25"/>
<path class="st6" d="M460.3,389.6V382h3.1c0.8-0.1,1.6,0.1,2.3,0.5c0.5,0.5,0.8,1.3,0.7,2c0.1,0.7-0.1,1.5-0.6,2
	c-0.6,0.5-1.3,0.7-2.1,0.6h-1.3v2.7L460.3,389.6z M462.4,385.5h0.9l0.8-0.2c0.1-0.3,0.2-0.6,0.2-0.9c0-0.3-0.1-0.6-0.2-0.8
	c-0.2-0.2-0.5-0.2-0.8-0.2h-0.9V385.5z"/>
<path class="st6" d="M472.8,387.9v1.5c-0.8,0.2-1.7,0.3-2.5,0.3c-0.9,0.1-1.9-0.2-2.6-0.8c-0.6-0.9-0.9-2-0.8-3.1
	c-0.1-1.1,0.2-2.1,0.8-3c0.7-0.7,1.6-1,2.6-0.9c0.8,0,1.6,0.1,2.4,0.3l-0.2,1.5h-2.2c-0.4,0-0.8,0.2-1,0.5c-0.1,0.6-0.2,1.1-0.2,1.7
	c0,0.6,0,1.1,0.2,1.7c0.2,0.3,0.6,0.5,1,0.5L472.8,387.9z"/>
<path d="M504.3,389.1c-0.4-0.4-0.6-0.9-0.6-1.5v-4.1c0-0.6,0.2-1.1,0.6-1.5c0.4-0.4,0.9-0.6,1.5-0.6h1.7c0.6,0,1.1,0.2,1.5,0.6
	c0.3,0.4,0.5,1,0.5,1.5v4.1c0,0.5-0.1,1.1-0.5,1.5c-0.4,0.4-1,0.5-1.5,0.5h-1.7C505.2,389.7,504.7,389.5,504.3,389.1z M507.1,388.4
	c0.7,0,1-0.3,1-1v-3.7c0-0.7-0.3-1.1-0.9-1.1h-1.1c-0.3,0-0.6,0.1-0.8,0.3c-0.1,0.2-0.2,0.5-0.2,0.8v3.7c0,0.3,0.1,0.6,0.2,0.8
	l0.8,0.2L507.1,388.4z"/>
<path class="st6" d="M461,411.6h1.9c0.3-0.1,0.6,0.2,0.7,0.5c0,0.1,0,0.1,0,0.2l0.3,6.9H462l-0.2-6h-0.2l-0.9,4.2
	c-0.1,0.4-0.4,0.6-0.8,0.6h-1.2c-0.4,0.1-0.7-0.2-0.8-0.6c0,0,0,0,0,0l-1-4.2h-0.1l-0.2,6h-1.9l0.2-6.9c0.1-0.5,0.3-0.7,0.8-0.7h1.8
	c0.5,0,0.8,0.2,0.8,0.6l0.8,3.4c0,0.2,0.1,0.6,0.1,1.1h0.1c0.1-0.2,0.1-0.3,0.1-0.5c0-0.2,0-0.4,0.1-0.6l0.7-3.4
	C460.3,411.8,460.6,411.5,461,411.6C461,411.6,461,411.6,461,411.6z"/>
<path class="st6" d="M469.3,417.4h-2.4l-0.4,1.8h-2.1l2-7.1l0.3-0.4h2.8c0.1,0.1,0.2,0.3,0.2,0.4l2.1,7.1h-2.1L469.3,417.4z
	 M468.9,415.9l-0.5-2c0-0.3-0.1-0.5-0.2-0.8h-0.3c0,0.3-0.1,0.6-0.1,0.8l-0.5,2H468.9z"/>
<path class="st6" d="M478.8,419.2h-2.2l-0.5-2.3c0-0.2-0.1-0.4-0.2-0.5h-1.4v2.9h-2.1v-7.6h3.1c0.8-0.1,1.6,0.1,2.3,0.5
	c0.5,0.3,0.7,0.9,0.7,1.8c0.1,0.9-0.5,1.7-1.4,1.8c0,0-0.1,0-0.1,0l0,0c0.6,0.1,1.1,0.5,1.2,1.1L478.8,419.2z M474.5,414.8h0.9
	c0.3,0,0.6,0,0.8-0.2c0.2-0.1,0.2-0.4,0.2-0.7s0-0.6-0.2-0.7s-0.4-0.2-0.8-0.2h-0.9V414.8z"/>
<path d="M504.4,418.7c-0.3-0.4-0.5-1-0.5-1.5v-4.1c0-0.6,0.2-1.2,0.6-1.6c0.4-0.4,1-0.5,1.5-0.5h1.7c0.5,0,1.1,0.2,1.5,0.5
	c0.3,0.5,0.5,1,0.5,1.6v4.1c0,0.6-0.2,1.1-0.6,1.5c-0.4,0.4-1,0.5-1.5,0.5H506C505.4,419.2,504.9,419,504.4,418.7z M507.3,418
	c0.5,0.1,0.9-0.3,1-0.8c0-0.1,0-0.1,0-0.2v-3.8c0-0.7-0.3-1-1-1h-1c-0.3,0-0.6,0.1-0.8,0.3c-0.2,0.1-0.2,0.4-0.2,0.7v3.8
	c0,0.3,0,0.6,0.2,0.7c0.2,0.2,0.5,0.3,0.8,0.3H507.3z"/>
<path class="st6" d="M457.5,436.2h1.9c0.5,0,0.8,0.2,0.8,0.7l0.3,6.9h-1.9l-0.3-6.1h-0.2l-0.9,4.3c-0.1,0.4-0.4,0.7-0.8,0.6
	c0,0,0,0,0,0h-1.1c-0.4,0.1-0.8-0.2-0.9-0.6l-0.9-4.3h-0.2l-0.2,6.1h-1.9l0.3-6.9c-0.1-0.3,0.2-0.6,0.5-0.7c0.1,0,0.1,0,0.2,0h1.9
	c0.4,0,0.7,0.2,0.8,0.6l0.7,3.4c0.1,0.4,0.2,0.7,0.2,1.1h0.1c0-0.2,0-0.3,0.1-0.5c0-0.3,0-0.5,0.1-0.6l0.6-3.4
	C456.8,436.4,457.1,436.2,457.5,436.2z"/>
<path class="st6" d="M461.6,443.8v-7.6h3.1c1.3,0,2.2,0.2,2.7,0.8s0.7,1.6,0.7,3.1s-0.2,2.5-0.7,3c-0.7,0.7-1.7,1-2.7,0.9
	L461.6,443.8z M463.7,437.6v4.7h1c0.5,0,0.8-0.1,1-0.5c0.3-0.6,0.4-1.2,0.3-1.8c0.1-0.6,0-1.3-0.3-1.9c-0.2-0.3-0.6-0.5-1-0.5
	L463.7,437.6z"/>
<path class="st6" d="M475.6,443.8h-2.1l-0.6-2.3c0-0.2-0.1-0.4-0.2-0.5h-1.4v2.9h-2.1v-7.6h3.1c0.8-0.1,1.6,0.1,2.3,0.5
	c0.5,0.4,0.8,1,0.7,1.7c0,1.2-0.5,1.8-1.5,1.9l0,0c0.6,0,1.1,0.5,1.2,1.1L475.6,443.8z M471.3,439.4h1l0.7-0.2
	c0.2-0.1,0.2-0.4,0.2-0.7s0-0.6-0.2-0.7s-0.4-0.2-0.7-0.2h-1V439.4z"/>
<path class="st6" d="M477.6,444.6H476l4.4-8.4h1.5L477.6,444.6z"/>
<path class="st6" d="M460.9,447.2h1.9c0.5,0,0.7,0.2,0.7,0.7l0.3,6.9h-1.9l-0.2-6.1h-0.2l-0.9,4.3c-0.1,0.4-0.4,0.6-0.8,0.6h-1.2
	c-0.4,0-0.7-0.2-0.8-0.6l-0.9-4.3h-0.2l-0.2,6.1h-1.9l0.3-6.9c0-0.5,0.2-0.7,0.7-0.7h1.9c0.4,0,0.7,0.2,0.8,0.6l0.7,3.4
	c0,0.2,0.1,0.6,0.1,1.1h0.2v-0.5c0.1-0.2,0.1-0.4,0.1-0.6l0.7-3.4C460.2,447.4,460.5,447.2,460.9,447.2z"/>
<path class="st6" d="M469.5,450.8L469.5,450.8c0.5,0,0.9,0.1,1.2,0.5c0.3,0.4,0.5,1,0.4,1.5c0,0.6-0.2,1.1-0.6,1.5
	c-0.6,0.3-1.4,0.5-2.1,0.4H465v-7.6h3.1c0.8-0.1,1.5,0.1,2.2,0.4c0.5,0.4,0.7,1,0.6,1.6c0,0.4-0.1,0.9-0.4,1.2
	C470.3,450.6,470,450.7,469.5,450.8z M467,450.2h1c0.4,0.1,0.8,0,0.9-0.4c0.1-0.2,0.1-0.3,0-0.5c0-0.2-0.1-0.4-0.2-0.6l-0.7-0.2h-1
	L467,450.2z M467,453.4h1.1c0.3,0,0.6-0.1,0.8-0.2c0.1-0.1,0.1-0.4,0.1-0.7s0-0.7-0.2-0.8s-0.3-0.2-0.7-0.2H467V453.4z"/>
<path class="st6" d="M478.5,454.8h-2.1l-0.6-2.3c0-0.2-0.1-0.4-0.2-0.5h-1.4v2.9h-2.1v-7.6h3.1c0.8-0.1,1.6,0.1,2.3,0.5
	c0.5,0.4,0.8,1,0.7,1.7c0,1.2-0.5,1.8-1.5,1.9l0,0c0.6,0,1.1,0.5,1.2,1.1L478.5,454.8z M474.2,450.4h1c0.3,0,0.6-0.1,0.8-0.2
	c0.1-0.2,0.2-0.5,0.2-0.7c0-0.3,0-0.5-0.2-0.7c-0.2-0.2-0.4-0.2-0.8-0.2h-1V450.4z"/>
<path d="M504.3,448.4c-0.4-0.4-0.6-0.9-0.6-1.5v-4.1c0-0.6,0.2-1.2,0.6-1.6c0.4-0.3,1-0.5,1.5-0.5h1.7c0.5,0,1.1,0.2,1.5,0.5
	c0.3,0.5,0.5,1,0.5,1.6v4.1c0.1,1-0.6,1.9-1.6,2c-0.1,0-0.3,0-0.4,0h-1.7C505.3,448.9,504.7,448.8,504.3,448.4z M507.1,447.7
	c0.5,0.1,0.9-0.3,1-0.8c0-0.1,0-0.1,0-0.2v-3.8c0-0.7-0.3-1-0.9-1h-1.1c-0.3,0-0.6,0.1-0.8,0.3c-0.1,0.2-0.2,0.5-0.2,0.7v3.8
	c0,0.2,0.1,0.5,0.2,0.7c0.2,0.2,0.5,0.3,0.8,0.3H507.1z"/>
<path class="st6" d="M464,476.8v1.5c-0.8,0.3-1.6,0.4-2.5,0.4c-1,0.1-1.9-0.2-2.6-0.9c-0.6-0.9-0.9-2-0.8-3.1
	c-0.1-1.1,0.2-2.1,0.8-3c0.7-0.7,1.6-1,2.6-0.9c0.8,0,1.6,0.1,2.4,0.3l-0.2,1.5h-2.2c-0.4-0.1-0.8,0.1-1,0.4
	c-0.1,0.6-0.2,1.1-0.2,1.7c0,0.6,0,1.2,0.2,1.8c0.2,0.3,0.6,0.5,1,0.4L464,476.8z"/>
<path class="st6" d="M467.1,478.5H465v-7.6h2.1V478.5z"/>
<path class="st6" d="M474.8,478.5h-2.2l-0.5-2.2c-0.1-0.3-0.1-0.4-0.2-0.5h-1.5v2.8h-2V471h3.1c0.8-0.1,1.6,0.1,2.3,0.5
	c0.5,0.5,0.8,1.1,0.7,1.8c0,1.1-0.5,1.8-1.5,1.9l0,0c0.6,0.1,1.1,0.6,1.2,1.2L474.8,478.5z M470.4,474.2h1c0.3,0,0.6,0,0.8-0.2
	c0.2-0.1,0.2-0.4,0.2-0.7s0-0.6-0.2-0.8c-0.2-0.2-0.5-0.2-0.8-0.2h-1V474.2z"/>
<path d="M504.3,478.1c-0.4-0.4-0.6-1-0.6-1.6v-4c0-0.6,0.2-1.2,0.6-1.6c0.4-0.4,1-0.5,1.5-0.5h1.7c0.5,0,1.1,0.1,1.5,0.5
	c0.3,0.5,0.5,1,0.5,1.6v4c0,0.6-0.2,1.1-0.5,1.6c-0.4,0.3-1,0.5-1.5,0.5h-1.7C505.3,478.6,504.7,478.5,504.3,478.1z M507.1,477.4
	c0.7,0,1-0.4,1-1.1v-3.7c0-0.7-0.3-1-0.9-1h-1.1l-0.8,0.2c-0.1,0.2-0.2,0.5-0.2,0.8v3.7c0,0.3,0.1,0.6,0.2,0.8
	c0.2,0.2,0.5,0.3,0.8,0.3L507.1,477.4z"/>
</svg>
